<svg width="20" height="20" viewBox="0 0 20 20" fill="none" xmlns="http://www.w3.org/2000/svg">
<path d="M10.4709 0.727046C10.8139 0.787029 11.1603 0.830081 11.499 0.909896C14.0008 1.49908 15.9322 3.63619 16.2733 6.18544C16.3033 6.40941 16.3212 6.63531 16.3459 6.87089C15.2631 5.57643 14.0236 4.51755 12.4937 3.82533C10.7515 3.03685 9.02089 3.08861 7.30817 3.91627C5.93946 4.57801 4.80152 5.53483 3.81647 6.68223C3.76712 6.7398 3.72744 6.80558 3.66406 6.89459C3.68438 6.26961 3.76953 5.6872 3.96596 5.12946C4.77539 2.83078 6.37247 1.4033 8.74801 0.853299C9.00444 0.793801 9.2686 0.768163 9.52938 0.726562C9.84289 0.727046 10.1569 0.727046 10.4709 0.727046Z" fill="black"/>
<path d="M19.2744 7.20894C19.1302 7.52191 18.883 7.6322 18.5458 7.61091C18.2574 7.59253 17.9676 7.60946 17.6783 7.60656C17.3435 7.60317 17.1016 7.3734 17.1016 7.06382C17.1016 6.75471 17.344 6.52446 17.6783 6.52156C17.9676 6.51914 18.2579 6.53558 18.5458 6.5172C18.883 6.49592 19.1302 6.60572 19.2739 6.91918C19.2744 7.01593 19.2744 7.11267 19.2744 7.20894Z" fill="black"/>
<path d="M13.0838 14.1207C11.0184 14.1207 8.97958 14.1207 6.93062 14.1207C6.89869 13.9291 6.8774 13.739 6.83434 13.5537C6.67323 12.8644 6.32827 12.2815 5.80187 11.807C4.70216 10.8153 4.0132 9.59344 3.75678 8.13355C3.70694 7.8496 3.68517 7.56033 3.64453 7.22607C4.16609 7.90039 4.74038 8.45233 5.35966 8.95782C6.28811 9.71631 7.30267 10.321 8.46625 10.6499C10.0111 11.0872 11.4756 10.839 12.8801 10.1197C14.1661 9.46139 15.2436 8.5423 16.1812 7.45198C16.231 7.39393 16.2712 7.32766 16.3365 7.23623C16.3201 7.76011 16.2494 8.24432 16.1188 8.71886C15.8106 9.83676 15.261 10.8241 14.4046 11.6058C13.6528 12.2902 13.153 13.0797 13.0838 14.1207Z" fill="black"/>
<path d="M9.98918 9.77995C8.49515 9.77705 7.27835 8.55225 7.28126 7.0551C7.28416 5.56086 8.50822 4.34525 10.0066 4.34864C11.5016 4.35154 12.7179 5.57538 12.7145 7.073C12.7111 8.56724 11.4876 9.78285 9.98918 9.77995ZM9.99305 8.69301C10.8867 8.69543 11.6216 7.96887 11.6274 7.07784C11.6337 6.17617 10.9026 5.43703 10.0032 5.43461C9.11009 5.43219 8.37468 6.15924 8.36839 7.0493C8.36259 7.95097 9.09363 8.69107 9.99305 8.69301Z" fill="black"/>
<path d="M13.09 15.2246C13.0755 15.5187 13.09 15.8051 13.0426 16.0808C12.9419 16.6642 12.4359 17.0884 11.8442 17.0923C10.6138 17.1005 9.38346 17.1015 8.15263 17.0923C7.48109 17.087 6.93921 16.5365 6.92083 15.868C6.91502 15.658 6.91986 15.4476 6.91986 15.2251C8.97076 15.2246 11.012 15.2246 13.09 15.2246Z" fill="black"/>
<path d="M11.9853 18.1929C11.9829 18.77 11.5306 19.2503 10.9601 19.2629C10.3205 19.2769 9.67996 19.2769 9.04035 19.2629C8.46993 19.2503 8.01659 18.7685 8.01562 18.1929C9.33499 18.1929 10.6534 18.1929 11.9853 18.1929Z" fill="black"/>
<path d="M1.81577 11.2271C1.54725 11.23 1.33583 11.0777 1.26325 10.8527C1.18923 10.6244 1.25793 10.3763 1.46452 10.2481C1.80126 10.0381 2.14477 9.83787 2.49554 9.6526C2.73599 9.52587 3.03354 9.62648 3.17627 9.85238C3.31657 10.0744 3.29577 10.3927 3.07709 10.5378C2.71277 10.7797 2.32233 10.9829 1.9406 11.1981C1.8956 11.2228 1.83658 11.2223 1.81577 11.2271Z" fill="black"/>
<path d="M17.2908 9.58252C17.3857 9.61638 17.4873 9.63863 17.5744 9.68701C17.8743 9.85292 18.1709 10.0251 18.4651 10.2012C18.7554 10.3744 18.8458 10.6898 18.69 10.9587C18.5362 11.2248 18.2135 11.3017 17.9203 11.1367C17.6111 10.9626 17.302 10.788 16.9986 10.6042C16.7795 10.4711 16.6929 10.2293 16.7611 9.99514C16.8303 9.7586 17.0417 9.59945 17.2908 9.58252Z" fill="black"/>
<path d="M3.2614 3.95167C3.26044 4.38751 2.84048 4.65404 2.47907 4.46684C2.1375 4.28979 1.80511 4.09388 1.47902 3.89023C1.23131 3.73544 1.16696 3.42247 1.30775 3.17432C1.44661 2.92906 1.75335 2.82168 2.01074 2.95712C2.35618 3.139 2.69244 3.33975 3.02675 3.54292C3.18593 3.64015 3.25415 3.80123 3.2614 3.95167Z" fill="black"/>
<path d="M18.7655 3.47496C18.7578 3.64136 18.675 3.80341 18.5023 3.90645C18.1874 4.09413 17.8709 4.28085 17.5487 4.45596C17.2744 4.60495 16.9585 4.51159 16.8119 4.25522C16.6638 3.99545 16.7436 3.68006 17.0112 3.51801C17.3252 3.32839 17.6416 3.14167 17.9653 2.96946C18.3349 2.77307 18.7641 3.03138 18.7655 3.47496Z" fill="black"/>
<path d="M1.81275 6.52148C1.99322 6.52148 2.17416 6.51762 2.35463 6.52245C2.66282 6.53116 2.8965 6.76432 2.89892 7.05988C2.90134 7.35543 2.66959 7.59923 2.36382 7.60552C1.9966 7.61278 1.62938 7.61278 1.26217 7.60552C0.956878 7.59923 0.724162 7.35447 0.726581 7.05988C0.729 6.76528 0.963652 6.53068 1.27088 6.52245C1.45134 6.51762 1.6318 6.52148 1.81275 6.52148Z" fill="black"/>
<path d="M15.0924 7.08618C14.5956 7.53315 14.1103 7.96995 13.625 8.40676C13.6081 8.39612 13.5912 8.38548 13.5742 8.37435C13.8761 7.50654 13.8819 6.63922 13.5945 5.76318C14.1379 6.13856 14.6154 6.57827 15.0924 7.08618Z" fill="black"/>
<path d="M6.36765 8.39679C5.88625 7.9653 5.40485 7.53381 4.88281 7.06556C5.39808 6.60167 5.8819 6.16631 6.36523 5.73096C6.38313 5.74208 6.40103 5.75321 6.41893 5.76482C6.11945 6.63118 6.11848 7.49705 6.41942 8.36244C6.402 8.37405 6.38506 8.38518 6.36765 8.39679Z" fill="black"/>
<path d="M10.5423 7.06425C10.5418 7.35788 10.2975 7.6041 10.0038 7.60651C9.70338 7.60893 9.45179 7.35497 9.45711 7.05458C9.46195 6.76144 9.71112 6.51861 10.0043 6.52151C10.298 6.52393 10.5423 6.77063 10.5423 7.06425Z" fill="black"/>
</svg>
