<svg width="109" height="37" viewBox="0 0 109 37" fill="none" xmlns="http://www.w3.org/2000/svg">
<path d="M77.9866 14.7021C77.9866 13.9008 78.0921 12.9998 77.9651 12.1321C77.6798 10.1855 76.0459 9.22201 74.156 9.7966C72.9834 10.1543 72.1508 10.9419 71.4707 11.9288C71.3515 12.1008 71.1169 12.1927 70.8629 12.2357C71.3339 10.3575 72.3775 8.9914 74.1345 8.19206C76.4387 7.14255 79.2667 7.79141 80.6055 9.71256C81.1918 10.5549 81.4674 11.5008 81.4674 12.5269C81.4674 15.0754 81.4635 17.622 81.4713 20.1705C81.4732 20.5496 81.5123 20.9327 81.5631 21.3099C81.6198 21.7222 81.7351 22.0506 82.2999 21.902C82.6517 21.8102 82.6615 22.033 82.5306 22.3105C82.1065 23.2037 81.0882 23.8388 80.113 23.7822C79.0478 23.7177 78.4048 23.1314 78.1156 22.1229C78.1 22.0682 78.0511 22.0252 78.014 21.9724C75.4654 24.9978 71.8674 23.9854 70.7065 21.4897C70.128 22.3007 69.4753 23.0141 68.5176 23.3385C66.4303 24.046 64.4916 23.0356 63.9131 20.8936C63.7333 20.2271 63.6571 19.5138 63.6512 18.8219C63.6238 15.8493 63.6414 12.8767 63.6395 9.90409C63.6395 8.86045 63.3542 8.59857 62.3203 8.57707C60.9933 8.54775 59.8851 9.0168 58.9392 9.93732C57.7392 11.106 56.5275 12.2669 55.3001 13.4083C54.9757 13.7093 54.9425 13.9282 55.175 14.319C56.4552 16.4689 57.704 18.6382 58.9587 20.8037C59.5763 21.8688 60.3561 22.717 61.6265 22.9926C61.775 23.0258 61.8884 23.2271 62.0173 23.3522C61.9802 23.4147 61.945 23.4773 61.9079 23.5379C60.575 23.5379 59.2343 23.448 57.9131 23.5652C56.7952 23.6649 56.2285 23.2623 55.7282 22.2812C54.4852 19.848 53.1093 17.4812 51.7568 15.0304C52.9099 13.9946 54.0552 12.9627 55.2044 11.9327C56.1053 11.1256 57.018 10.3321 57.9014 9.50735C58.0597 9.35882 58.2239 9.0383 58.1633 8.88586C58.1008 8.72756 57.7705 8.60052 57.5516 8.59466C56.4728 8.56534 55.392 8.58098 54.2604 8.58098C54.2428 8.33472 54.2291 8.13538 54.2076 7.83831C54.5438 7.83831 54.8311 7.84027 55.1203 7.83831C57.0689 7.82659 59.0271 7.94776 60.9463 7.45525C63.6649 6.75754 65.6779 5.30152 66.3619 2.42663C66.489 1.89504 66.4851 1.33413 66.5847 0.792763C66.614 0.632504 66.7919 0.499606 66.9013 0.353027C66.9971 0.505469 67.173 0.655957 67.175 0.808398C67.1945 2.80382 67.1867 4.79925 67.1867 6.79663C67.1867 7.02724 67.1867 7.25786 67.1867 7.55102C68.4531 7.55102 69.6746 7.55102 70.9371 7.55102C70.9371 7.90085 70.9371 8.18815 70.9371 8.54775C69.7176 8.54775 68.4981 8.54775 67.2316 8.54775C67.2121 8.79987 67.1867 8.98163 67.1867 9.16534C67.1847 12.351 67.1671 15.5347 67.2023 18.7203C67.2082 19.2969 67.3372 19.9125 67.5717 20.4382C68.0427 21.4955 69.5065 21.6871 70.2941 20.8428C70.388 20.7411 70.4349 20.5398 70.4153 20.3952C69.9404 16.7151 72.6101 14.835 75.5671 14.708C76.3664 14.6747 77.1658 14.7021 77.9866 14.7021ZM78.0316 15.7379C77.7834 15.7067 77.6172 15.6715 77.4492 15.6656C76.0791 15.6148 74.8264 15.9373 74.1365 17.2174C73.4094 18.5679 73.4173 19.9946 74.2616 21.3236C74.7072 22.0271 75.5241 22.2792 76.3312 22.0721C77.0719 21.8805 78.012 21.0167 78.0237 20.4206C78.0511 18.8786 78.0316 17.3347 78.0316 15.7379Z" fill="#353938"/>
<path d="M11.2835 10.7147C12.245 11.09 13.2359 11.3675 14.1193 11.8444C16.2789 13.0111 17.3245 15.4131 16.9512 18.1003C16.5036 21.3251 14.7076 23.2189 11.3069 23.4202C7.69524 23.6332 4.06008 23.469 0.223633 23.469C0.42298 23.2443 0.520698 23.0508 0.675095 22.9785C0.938936 22.8534 1.24969 22.828 1.52135 22.7127C2.20733 22.4215 2.58648 21.9212 2.58453 21.1394C2.57671 15.6613 2.58648 10.1851 2.57085 4.70696C2.56889 4.20273 2.4829 3.69068 2.36564 3.19817C2.16043 2.34997 1.63861 1.79102 0.761088 1.56626C0.575422 1.51936 0.432752 1.30047 0.272492 1.15975C0.309626 1.10698 0.34676 1.05422 0.383894 1.00145C0.528518 0.985813 0.671192 0.958452 0.815816 0.958452C3.44837 0.956497 6.07896 0.940862 8.71151 0.960406C11.1975 0.977995 12.9838 2.10763 13.7714 4.10696C14.817 6.75906 13.873 9.33493 11.3832 10.6326C11.3323 10.66 11.2913 10.7069 11.2835 10.7147ZM6.31545 22.4117C7.57407 22.4117 8.79947 22.4821 10.0131 22.3941C11.7564 22.269 12.6965 21.1785 13.019 19.529C13.2887 18.1453 13.3551 16.742 13.0229 15.3642C12.6086 13.6346 11.7975 12.1141 9.92128 11.6919C8.77015 11.432 7.53889 11.5199 6.31349 11.4515C6.31545 15.2059 6.31545 18.8196 6.31545 22.4117ZM6.31545 10.2926C7.08939 10.2926 7.78319 10.3121 8.477 10.2887C9.85288 10.2437 10.66 9.46979 10.9981 8.18967C11.3753 6.76688 11.3538 5.33627 10.8711 3.93693C10.5565 3.02619 9.97014 2.30698 8.98904 2.1389C8.12716 1.99037 7.23401 2.01773 6.31349 1.96496C6.31545 4.80468 6.31545 7.52713 6.31545 10.2926Z" fill="#353938"/>
<path d="M86.8026 7.83805C86.8026 8.53772 86.8026 9.15921 86.8026 9.82956C87.3205 9.34097 87.7407 8.86605 88.2371 8.49081C89.9081 7.23219 92.138 7.38463 93.6429 8.83674C94.8605 10.0094 95.3999 11.5142 95.65 13.1383C96.037 15.6341 95.953 18.0927 94.8448 20.4204C93.7425 22.7383 91.7784 23.9441 89.3433 23.7174C88.5029 23.6392 87.6918 23.2718 86.8162 23.0216C86.8162 25.2555 86.8162 27.591 86.8162 30.0007C84.899 29.6372 83.0736 29.2913 81.0098 28.9024C81.2541 28.6874 81.3772 28.4861 81.5218 28.4685C82.8371 28.3102 83.1928 27.9955 83.271 26.6802C83.3355 25.6014 83.3277 24.5187 83.3296 23.436C83.3355 19.5096 83.3335 15.5833 83.3296 11.6569C83.3296 11.2133 83.3042 10.7677 83.269 10.324C83.1811 9.2667 82.7159 8.74293 81.6781 8.44586C81.5159 8.39896 81.3928 8.2172 81.2521 8.09798C81.4104 8.01003 81.5687 7.84977 81.729 7.84782C83.3804 7.83023 85.0338 7.83805 86.8026 7.83805ZM86.8006 15.1298C86.8065 15.1298 86.8104 15.1298 86.8162 15.1298C86.8162 16.3611 86.7791 17.5943 86.828 18.8236C86.8671 19.8438 87.0429 20.8523 87.6351 21.7278C88.4306 22.9024 89.9335 23.0314 90.8071 21.9194C91.239 21.3702 91.5751 20.6842 91.7491 20.006C92.3882 17.5142 92.2826 14.995 91.7276 12.5051C91.5615 11.7585 91.2038 11.0217 90.7895 10.3748C90.2637 9.55595 89.3081 9.3312 88.4227 9.64976C87.4631 9.99373 86.8026 10.8517 86.8006 11.7546C86.8006 12.8784 86.8006 14.0041 86.8006 15.1298Z" fill="#353938"/>
<path d="M30.7403 21.9117C29.9136 22.9065 28.9931 23.6159 27.7364 23.784C25.3247 24.1045 23.3136 22.4765 23.1378 20.0511C22.9228 17.0629 24.9358 14.8818 28.0921 14.7196C28.956 14.6746 29.8237 14.7137 30.8458 14.7137C30.7657 13.7131 30.8126 12.5971 30.5625 11.5496C30.1931 10.0017 28.5318 9.2864 26.8765 9.80822C25.7293 10.1698 24.9026 10.9359 24.2439 11.9092C24.0798 12.1496 23.9469 12.474 23.5775 12.1574C24.3104 8.66296 28.5123 6.63235 31.6725 8.26231C33.3553 9.13005 34.182 10.5743 34.2054 12.4427C34.2386 14.9893 34.2113 17.5378 34.2171 20.0863C34.2171 20.4674 34.2386 20.8505 34.2953 21.2257C34.3618 21.6557 34.436 22.1228 35.0888 21.8961C35.1064 21.8902 35.3116 22.1912 35.2725 22.287C34.909 23.186 33.8614 23.829 32.8843 23.7899C31.8914 23.7488 31.266 23.2348 30.8752 22.1423C30.8537 22.0857 30.8146 22.0368 30.7403 21.9117ZM30.7774 15.7261C29.255 15.5424 27.9006 15.7183 27.0211 17.0101C26.169 18.2609 26.1886 19.6466 26.81 21.0029C27.2166 21.8863 28.0257 22.2635 28.954 22.0954C29.7397 21.9528 30.754 21.0655 30.7677 20.4225C30.797 18.8785 30.7774 17.3346 30.7774 15.7261Z" fill="#353938"/>
<path d="M108.084 19.2402C107.15 23.4186 102.414 25.3163 98.9216 22.502C97.0434 20.9893 96.3066 18.8923 96.1346 16.5783C95.9978 14.7177 96.2284 12.8943 97.0336 11.1803C98.1711 8.75882 100.256 7.53928 102.987 7.69954C105.191 7.82853 107.03 9.35881 107.759 11.8331C108.078 12.9119 108.166 14.0611 108.379 15.2962C105.387 15.2962 102.582 15.2962 99.7229 15.2962C99.801 17.0767 100.022 18.7164 101.034 20.1392C102.176 21.7437 104.056 22.1991 105.742 21.1887C106.434 20.7744 106.985 20.1236 107.607 19.5861C107.755 19.461 107.923 19.3555 108.084 19.2402ZM104.794 14.3034C104.793 12.7243 104.611 11.2428 103.919 9.86695C103.6 9.23569 103.149 8.7295 102.373 8.71387C101.624 8.69823 101.159 9.17315 100.823 9.76337C100.03 11.1568 99.8128 12.6949 99.7229 14.3014C101.419 14.3034 103.065 14.3034 104.794 14.3034Z" fill="#353938"/>
<path d="M16.2842 1.39472C18.0822 1.0527 19.8861 0.708732 21.817 0.341309C21.817 0.652055 21.817 0.892444 21.817 1.13479C21.817 7.37709 21.817 13.6194 21.819 19.8617C21.819 20.2232 21.8268 20.5828 21.8464 20.9444C21.903 22.0584 22.3838 22.6584 23.4314 22.9828C23.5955 23.0336 23.7265 23.1978 23.873 23.3092C23.7069 23.3854 23.5389 23.5261 23.3727 23.5281C21.0626 23.5418 18.7506 23.5379 16.3057 23.3972C16.4171 23.2643 16.5089 23.0375 16.6418 23.0102C18.0334 22.7229 18.3773 21.7613 18.3773 20.5027C18.3773 16.3829 18.3773 12.265 18.3773 8.14516C18.3773 6.80836 18.3793 5.46961 18.3754 4.13281C18.3754 3.90024 18.3617 3.66571 18.3324 3.4351C18.1917 2.33673 17.8008 1.96931 16.6927 1.88136C16.3018 1.85009 16.3018 1.85009 16.2842 1.39472Z" fill="#353938"/>
<path d="M45.8867 23.362C46.0099 23.2349 46.1193 23.0219 46.26 22.9965C47.419 22.7932 47.9564 21.9372 47.9564 20.5887C47.9564 17.4676 47.9564 14.3484 47.9564 11.2272C47.9564 8.82918 47.9623 6.4292 47.9506 4.03118C47.9486 3.65398 47.9115 3.26115 47.8059 2.90154C47.5812 2.13543 46.9851 1.88526 46.2366 1.86963C46.1115 1.86767 45.9903 1.71719 45.8672 1.6351C45.9551 1.54129 46.0314 1.38103 46.1349 1.36149C47.8548 1.01947 49.5785 0.695045 51.3883 0.351074C51.3883 0.675502 51.3883 0.923708 51.3883 1.17191C51.3883 7.45525 51.3864 13.7386 51.3903 20.0219C51.3903 20.446 51.3981 20.874 51.4606 21.2903C51.5916 22.1737 52.088 22.7405 52.9753 22.9691C53.159 23.016 53.3056 23.2095 53.4678 23.3366C53.4306 23.3932 53.3935 23.4499 53.3564 23.5086C50.9036 23.5086 48.4509 23.5086 45.9981 23.5086C45.9649 23.4558 45.9258 23.4089 45.8867 23.362Z" fill="#353938"/>
<path d="M46.2631 13.406C46.1087 13.2243 45.9152 13.0621 45.8038 12.8568C45.3231 11.9656 44.9654 10.9885 44.3791 10.1735C42.8899 8.10378 40.441 8.42235 39.4091 10.7539C38.7309 12.2862 38.5883 13.8966 38.6391 15.5461C38.6801 16.877 38.9185 18.1669 39.4931 19.3669C40.8338 22.1675 43.6306 22.5799 45.7354 20.305C45.9641 20.0568 46.142 19.7617 46.3687 19.5115C46.4781 19.3903 46.6481 19.3219 46.7908 19.2281C46.8045 19.3903 46.8729 19.5721 46.8221 19.7089C46.0325 21.7786 44.6801 23.2913 42.4325 23.7193C40.0873 24.1669 38.1818 23.303 36.7179 21.4581C34.3844 18.5187 34.3883 13.064 36.7062 10.1129C38.4925 7.83799 41.3967 7.07773 44.3478 8.13505C44.9439 8.34808 45.5205 8.6256 46.0911 8.90313C46.2358 8.97348 46.4234 9.1572 46.4253 9.29205C46.4507 10.623 46.441 11.9559 46.441 13.2868C46.3804 13.3278 46.3218 13.3669 46.2631 13.406Z" fill="#353938"/>
<path d="M4.24375 30.0574C4.24375 32.2541 4.24375 34.3199 4.24375 36.4208C3.93691 36.4208 3.65548 36.4208 3.33691 36.4208C3.33691 33.8293 3.33691 31.2339 3.33691 28.6404C4.23984 28.4587 4.32193 28.49 4.80076 29.2228C6.01834 31.0873 7.23592 32.9518 8.51408 34.9101C8.51408 32.7583 8.51408 30.6906 8.51408 28.6014C8.8561 28.6014 9.1258 28.6014 9.43655 28.6014C9.43655 31.1909 9.43655 33.7863 9.43655 36.3837C8.65088 36.5948 8.50431 36.544 8.07043 35.8795C6.85285 34.0111 5.63723 32.1407 4.41965 30.2704C4.39424 30.2313 4.36101 30.1981 4.24375 30.0574Z" fill="#353938"/>
<path d="M29.3119 34.914C29.3119 32.7544 29.3119 30.6945 29.3119 28.6053C29.6442 28.6053 29.9256 28.6053 30.2344 28.6053C30.2344 31.2144 30.2344 33.8098 30.2344 36.3993C29.5914 36.5694 29.1673 36.4228 28.7921 35.8189C27.6038 33.9134 26.3432 32.0548 25.0631 30.1082C25.0631 32.2404 25.0631 34.3062 25.0631 36.413C24.7328 36.413 24.4514 36.413 24.1289 36.413C24.1289 33.8332 24.1289 31.2398 24.1289 28.6463C24.9693 28.4411 25.1061 28.4919 25.5497 29.1681C26.7791 31.0502 28.0103 32.9284 29.3119 34.914Z" fill="#353938"/>
<path d="M46.0752 28.6327C46.7944 28.4275 47.2146 28.6679 47.5976 29.2875C48.7546 31.1539 49.9879 32.9734 51.2406 34.8848C51.2406 32.7604 51.2406 30.6946 51.2406 28.6034C51.5944 28.6034 51.8758 28.6034 52.1846 28.6034C52.1846 31.2203 52.1846 33.8138 52.1846 36.4034C51.5338 36.5754 51.1116 36.419 50.7383 35.8171C49.5501 33.9115 48.2895 32.0529 47.0074 30.1044C47.0074 32.2444 47.0074 34.3122 47.0074 36.419C46.6771 36.419 46.3957 36.419 46.0752 36.419C46.0752 33.8314 46.0752 31.2379 46.0752 28.6327Z" fill="#353938"/>
<path d="M31.7949 28.5995C32.9617 28.5995 34.0972 28.5311 35.219 28.6171C36.6047 28.7226 37.49 29.5533 37.8945 30.8647C38.2268 31.9376 38.2307 33.0321 37.918 34.1128C37.5291 35.4574 36.5128 36.333 35.1193 36.4229C34.0268 36.4913 32.9265 36.4366 31.793 36.4366C31.7949 33.8314 31.7949 31.2379 31.7949 28.5995ZM32.8014 35.5649C33.5167 35.5649 34.1793 35.604 34.8359 35.5571C36.0281 35.4731 36.7884 34.8535 36.9564 33.6751C37.0737 32.8601 37.0366 32.0021 36.9213 31.1832C36.8118 30.4112 36.3291 29.7565 35.5297 29.608C34.6425 29.4438 33.7219 29.4614 32.8014 29.3989C32.8014 31.5233 32.8014 33.5207 32.8014 35.5649Z" fill="#353938"/>
<path d="M18.4362 35.5279C19.9938 35.5279 21.5241 35.5279 23.072 35.5279C23.072 35.8562 23.072 36.1259 23.072 36.4269C21.186 36.4269 19.3176 36.4269 17.416 36.4269C17.416 33.8217 17.416 31.2224 17.416 28.6016C19.2649 28.6016 21.0863 28.6016 22.9391 28.6016C22.9391 28.8693 22.9391 29.1214 22.9391 29.4361C21.4577 29.4361 19.9645 29.4361 18.4382 29.4361C18.4382 30.2784 18.4382 31.0621 18.4382 31.9103C19.7906 31.9103 21.1391 31.9103 22.5248 31.9103C22.5248 32.2211 22.5248 32.4693 22.5248 32.7742C21.1626 32.7742 19.8121 32.7742 18.4342 32.7742C18.4362 33.7103 18.4362 34.5898 18.4362 35.5279Z" fill="#353938"/>
<path d="M60.3047 30.898C59.9724 30.898 59.6851 30.898 59.3979 30.898C58.6982 29.4869 57.8598 29.0433 56.4741 29.352C55.6259 29.5397 55.0806 30.0928 54.766 30.8647C54.3321 31.926 54.3184 33.0146 54.7425 34.0836C55.2526 35.3696 56.5464 36.0067 57.8715 35.6354C58.8819 35.352 59.2767 34.5722 59.4428 33.5852C59.7418 33.5852 60.0409 33.5852 60.3399 33.5852C60.5412 34.5722 59.6988 35.907 58.5868 36.3566C56.2689 37.2927 53.8162 35.8641 53.4839 33.38C53.3041 32.0354 53.4683 30.7631 54.3477 29.6608C55.4598 28.2674 57.8129 27.9488 59.2181 29.0081C59.8396 29.4752 60.207 30.0928 60.3047 30.898Z" fill="#353938"/>
<path d="M45.229 36.4562C44.9378 36.4562 44.6779 36.4875 44.4336 36.4445C44.2968 36.4191 44.1209 36.294 44.072 36.1708C43.8473 35.6002 43.6499 35.0197 43.4642 34.4354C43.3802 34.1676 43.2531 34.0484 42.9522 34.0562C42.1606 34.0777 41.3672 34.0797 40.5756 34.0562C40.2688 34.0464 40.1515 34.1774 40.0675 34.4393C39.9053 34.9474 39.6844 35.436 39.5515 35.95C39.4401 36.378 39.2212 36.5324 38.8011 36.4621C38.676 36.4406 38.545 36.4581 38.377 36.4581C38.4043 36.3233 38.4121 36.2178 38.4473 36.12C39.3248 33.7259 40.2141 31.3357 41.0779 28.9357C41.203 28.5898 41.4102 28.5468 41.6994 28.58C41.9887 28.6152 42.3209 28.4393 42.487 28.9045C43.3528 31.3201 44.2499 33.7259 45.1352 36.1337C45.1684 36.2197 45.188 36.3116 45.229 36.4562ZM41.7932 29.5435C41.3476 30.8237 40.9372 32.0061 40.5189 33.2119C41.3789 33.2119 42.1763 33.2119 43.0284 33.2119C42.618 31.9963 42.2232 30.8237 41.7932 29.5435Z" fill="#353938"/>
<path d="M13.931 36.4328C13.5695 36.4328 13.2685 36.4328 12.9069 36.4328C12.9069 34.1168 12.9069 31.8126 12.9069 29.4634C12.0138 29.4634 11.1793 29.4634 10.3135 29.4634C10.3135 29.1644 10.3135 28.9143 10.3135 28.6191C12.3675 28.6191 14.4255 28.6191 16.5167 28.6191C16.5167 28.8713 16.5167 29.1214 16.5167 29.438C15.6802 29.438 14.834 29.438 13.931 29.438C13.931 31.8048 13.931 34.107 13.931 36.4328Z" fill="#353938"/>
<path d="M63.8605 32.299C64.4938 31.2652 65.1016 30.2763 65.7055 29.2873C66.1784 28.5154 66.1765 28.5154 67.183 28.6131C67.0814 28.7812 66.9954 28.9277 66.9055 29.0724C66.1374 30.2899 65.3556 31.4978 64.611 32.7271C64.4547 32.985 64.3648 33.3192 64.355 33.6241C64.3218 34.5427 64.3433 35.4632 64.3433 36.4189C63.9954 36.4189 63.6846 36.4189 63.3133 36.4189C63.3133 35.4769 63.3368 34.5427 63.3016 33.6104C63.2899 33.2919 63.1921 32.942 63.028 32.6684C62.2951 31.4489 61.525 30.2528 60.7687 29.0489C60.6866 28.916 60.6143 28.7772 60.5303 28.6307C61.5348 28.4782 61.5348 28.4782 62.0195 29.2834C62.5863 30.2254 63.155 31.1655 63.7218 32.1075C63.7452 32.1466 63.7765 32.1837 63.8605 32.299Z" fill="#353938"/>
<path d="M1.7926 28.6113C1.7926 31.2224 1.7926 33.8061 1.7926 36.423C1.48381 36.423 1.18674 36.423 0.850586 36.423C0.850586 33.8334 0.850586 31.24 0.850586 28.6113C1.14374 28.6113 1.44081 28.6113 1.7926 28.6113Z" fill="#353938"/>
</svg>
