<svg width="116" height="38" viewBox="0 0 116 38" fill="none" xmlns="http://www.w3.org/2000/svg">
<path d="M83.3528 15.8014C83.3528 14.8613 83.474 13.8509 83.3274 12.8796C82.9971 10.6731 80.7554 9.69786 78.6232 10.7532C77.6694 11.2262 76.9424 11.9513 76.3756 12.8386C76.1958 13.12 76.02 13.2822 75.7014 13.0516C76.6239 8.7793 82.1782 6.77606 85.3736 9.54737C86.7515 10.7435 87.1247 12.3245 87.1247 14.0503C87.1267 16.7356 87.1228 19.419 87.1306 22.1043C87.1326 22.4268 87.1678 22.7551 87.2401 23.0678C87.3104 23.3766 87.5078 23.5662 87.8733 23.488C88.0023 23.4606 88.145 23.5056 88.2798 23.5153C88.2427 23.6736 88.2466 23.8574 88.1645 23.9863C87.541 24.9518 86.7026 25.5792 85.4967 25.4482C84.3163 25.3212 83.6929 24.5531 83.4388 23.4313C80.9841 26.6482 76.8486 25.8235 75.6545 23.1069C75.0369 23.6404 74.4721 24.3303 73.7451 24.7212C71.4057 25.9837 68.9236 24.8326 68.2962 22.2469C68.1399 21.602 68.0695 20.9238 68.0637 20.2593C68.0402 17.0757 68.0539 13.892 68.0539 10.7102C68.0539 9.49265 67.7744 9.22881 66.5764 9.21122C65.177 9.18972 64.0122 9.66659 63.0135 10.6555C61.7217 11.9376 60.3888 13.1786 59.052 14.4157C58.7354 14.7089 58.7276 14.92 58.9445 15.2854C60.3224 17.6092 61.6787 19.9447 63.0272 22.2841C63.6956 23.4411 64.5536 24.3381 65.9197 24.6391C66.0643 24.6704 66.166 24.8932 66.3985 25.1512C66.0272 25.1824 65.863 25.2078 65.6989 25.2078C64.0884 25.2117 62.478 25.2 60.8676 25.2176C60.5237 25.2215 60.3106 25.1316 60.1367 24.8131C58.6279 22.0574 57.1094 19.3095 55.5732 16.5695C55.3778 16.2196 55.3954 16.0242 55.7022 15.7545C57.7563 13.9408 59.7986 12.1115 61.8253 10.2666C62.0188 10.0907 62.0852 9.77213 62.2122 9.52001C61.9484 9.41838 61.6885 9.23662 61.4227 9.22881C60.295 9.19558 59.1654 9.21513 57.9908 9.21513C57.9908 8.95128 57.9908 8.73239 57.9908 8.43728C58.4129 8.43728 58.8468 8.43533 59.2807 8.43728C61.2722 8.4451 63.2676 8.49982 65.222 7.99168C67.3757 7.43077 69.2089 6.4184 70.3053 4.37608C70.8584 3.34612 71.1105 2.23212 71.1731 1.07121C71.1848 0.866004 71.1965 0.65884 71.2102 0.428223C71.4233 0.428223 71.5894 0.428223 71.8102 0.428223C71.8102 2.97478 71.8102 5.49789 71.8102 8.08158C73.1607 8.08158 74.4545 8.08158 75.7991 8.08158C75.8187 8.30047 75.8284 8.4666 75.8499 8.63077C75.9086 9.06659 75.76 9.24053 75.2851 9.2249C74.1594 9.18972 73.0317 9.21317 71.8219 9.21317C71.8219 9.47115 71.8219 9.67441 71.8219 9.87766C71.8219 13.2333 71.8024 16.589 71.8376 19.9447C71.8434 20.5799 71.9705 21.2502 72.205 21.8385C72.7288 23.1557 74.2454 23.1069 75.1776 22.288C75.2773 22.2 75.3125 21.9714 75.289 21.8248C74.775 18.731 76.7685 16.161 80.261 15.8131C81.2831 15.7154 82.3209 15.8014 83.3528 15.8014ZM83.4427 19.4991C83.4427 18.7525 83.4271 18.0059 83.4505 17.2594C83.4622 16.9115 83.3293 16.7805 82.999 16.761C81.5 16.673 80.1261 16.9721 79.3053 18.344C78.4434 19.7844 78.4844 21.3128 79.3365 22.761C79.831 23.6033 80.7632 23.8847 81.6877 23.6072C82.6629 23.314 83.4447 22.3564 83.4447 21.4535C83.4427 20.8007 83.4427 20.1499 83.4427 19.4991Z" fill="#353938"/>
<path d="M0.458393 25.2079C0.311815 24.819 0.378256 24.6118 0.743725 24.563C0.876623 24.5454 1.00757 24.5121 1.13656 24.4789C2.34437 24.1643 2.78996 23.5975 2.79191 22.3526C2.79387 17.9044 2.79778 13.4562 2.78996 9.00803C2.78605 7.49534 2.75871 5.98069 2.71571 4.468C2.70399 4.0908 2.61408 3.7097 2.50854 3.34618C2.26229 2.48626 1.72092 1.91167 0.819949 1.73186C0.499431 1.66737 0.26296 1.56183 0.438854 1.13187C0.546345 1.11819 0.673375 1.08692 0.80041 1.08692C3.75348 1.08496 6.70654 1.04392 9.65766 1.09864C11.7449 1.13773 13.4922 1.95857 14.4596 3.90318C15.4368 5.86734 15.4407 7.89012 14.2055 9.74874C13.7834 10.3839 13.0153 10.7885 12.3977 11.2888C12.2746 11.3885 12.1143 11.4412 11.9111 11.5448C12.6596 11.7598 13.3456 11.9083 13.9964 12.1546C16.8107 13.2139 18.3078 15.5689 18.167 18.6119C18.0928 20.1988 17.7781 21.692 16.6993 22.9252C15.4192 24.391 13.7111 25.0281 11.8525 25.0985C8.77039 25.2177 5.6844 25.1786 2.59843 25.202C1.8929 25.2138 1.18542 25.2079 0.458393 25.2079ZM6.77299 12.3657C6.77299 16.3057 6.77299 20.1832 6.77299 24.0783C7.96125 24.0783 9.11044 24.1389 10.2518 24.0646C12.0029 23.9493 13.3514 23.1988 13.8088 21.3636C14.3169 19.3174 14.356 17.2692 13.5567 15.2777C12.9137 13.6731 11.7821 12.5767 10.0134 12.3872C8.95605 12.2738 7.87722 12.3657 6.77299 12.3657ZM6.74954 11.025C7.64465 11.025 8.48503 11.0621 9.31956 11.0152C10.5332 10.9468 11.2974 10.2197 11.6629 9.12138C12.2179 7.45625 12.1866 5.77157 11.5847 4.11426C11.2817 3.28364 10.7385 2.5742 9.87071 2.39635C8.8642 2.19114 7.81077 2.20678 6.74954 2.1247C6.74954 5.19503 6.74954 8.09729 6.74954 11.025Z" fill="#353938"/>
<path d="M92.7936 24.4535C92.7936 27.002 92.7936 29.484 92.7936 32.0853C90.7493 31.7003 88.7715 31.327 86.7995 30.9557C86.7116 30.5218 86.8895 30.428 87.253 30.4202C88.4256 30.3967 88.92 29.9238 89.0236 28.757C89.0588 28.3564 89.0764 27.9538 89.0764 27.5531C89.0803 22.4522 89.0803 17.3512 89.0764 12.2503C89.0764 11.8497 89.0529 11.447 89.0177 11.0464C88.922 9.94413 88.4158 9.35781 87.3331 9.07638C86.8621 8.95326 86.8621 8.95326 86.8992 8.46857C88.8399 8.46857 90.7845 8.46857 92.7819 8.46857C92.7819 9.17997 92.7819 9.86009 92.7819 10.677C92.9754 10.4503 93.079 10.3291 93.1806 10.206C95.6607 7.20995 99.5265 7.64187 101.309 11.1089C101.995 12.4457 102.306 13.8803 102.405 15.3597C102.566 17.7226 102.362 20.0287 101.225 22.1727C99.5187 25.3877 95.862 26.3101 93.0536 24.5649C92.9949 24.5316 92.9246 24.5101 92.7936 24.4535ZM92.7878 16.2294C92.7878 17.3981 92.7878 18.5669 92.7878 19.7356C92.7878 19.8704 92.7741 20.0092 92.8034 20.1362C93.0321 21.0958 93.1337 22.116 93.5343 22.9994C94.2575 24.5942 96.1982 24.7349 97.2164 23.3082C97.6073 22.761 97.8926 22.1023 98.0744 21.4515C98.6548 19.374 98.5942 17.2477 98.3714 15.1272C98.2405 13.8861 98.0079 12.6627 97.3845 11.5565C96.7747 10.4777 95.8307 10.0262 94.7597 10.2725C93.6067 10.5363 92.7858 11.5545 92.7858 12.7194C92.7858 13.892 92.7858 15.0607 92.7878 16.2294Z" fill="#353938"/>
<path d="M32.9453 23.4786C32.5857 23.8089 32.2378 24.1607 31.8567 24.4753C29.3375 26.5548 25.6906 25.388 24.8698 22.2434C24.174 19.5737 25.5597 17.0487 28.2196 16.1438C29.6307 15.663 31.073 15.6415 32.531 15.8526C32.6424 15.8682 32.7518 15.8839 33.0391 15.923C32.9179 14.6722 32.9375 13.4526 32.6561 12.3073C32.2789 10.7732 30.6352 10.0246 28.9642 10.4507C27.6079 10.7947 26.6444 11.6663 25.8939 12.8038C25.7121 13.0793 25.546 13.3295 25.1923 13.0324C26.062 9.50476 29.8085 7.4253 33.1896 8.58816C35.2534 9.2976 36.5629 11.1308 36.5726 13.3666C36.5844 16.05 36.5707 18.7334 36.5804 21.4148C36.5824 21.8916 36.6019 22.3744 36.6762 22.8454C36.7427 23.2617 36.8951 23.6545 37.4756 23.4454C37.5557 23.4161 37.757 23.4884 37.7589 23.5216C37.7668 23.6604 37.7492 23.8167 37.6866 23.9379C37.1453 24.9522 36.041 25.5835 34.9935 25.4506C33.813 25.302 33.1896 24.5516 32.9453 23.4786ZM32.9355 19.4917C32.9355 18.7646 32.914 18.0356 32.9433 17.3086C32.959 16.908 32.8085 16.7731 32.4254 16.7555C30.946 16.6891 29.5994 16.9998 28.7903 18.3483C27.9479 19.7516 27.9968 21.2486 28.7629 22.6734C29.2476 23.5744 30.2267 23.8949 31.1844 23.6037C32.1635 23.3047 32.9355 22.3529 32.9355 21.4441C32.9355 20.7933 32.9355 20.1425 32.9355 19.4917Z" fill="#353938"/>
<path d="M115.702 16.3763C112.669 16.3763 109.669 16.3763 106.576 16.3763C106.712 18.6669 106.99 20.8323 108.803 22.4212C109.986 23.4571 111.733 23.5509 113.197 22.6128C113.893 22.1672 114.444 21.4988 115.069 20.9418C115.22 20.8089 115.407 20.717 115.636 20.6818C115.061 22.7945 113.84 24.3346 111.809 25.1105C108.897 26.2245 105.676 25.0518 104.07 22.0812C102.118 18.4675 102.18 14.721 104.234 11.1679C105.594 8.81484 107.846 7.93146 110.531 8.34383C113.033 8.72689 114.428 10.3842 115.2 12.6611C115.603 13.8396 115.757 15.0689 115.702 16.3763ZM112.073 15.321C112.015 14.6018 112.048 13.9021 111.884 13.2513C111.624 12.2252 111.366 11.1581 110.86 10.2474C110.164 8.99464 108.774 9.01419 107.975 10.2064C107.609 10.7516 107.308 11.379 107.142 12.0122C106.861 13.0852 106.71 14.1913 106.499 15.321C108.444 15.321 110.213 15.321 112.073 15.321Z" fill="#353938"/>
<path d="M25.4447 25.1785C25.3079 25.1883 25.1574 25.2079 25.0069 25.2079C22.6675 25.2098 20.3281 25.2137 17.9887 25.1981C17.8089 25.1961 17.6311 25.0437 17.4513 24.9616C17.6057 24.8346 17.7425 24.645 17.9184 24.5922C19.0207 24.2678 19.5698 23.6365 19.6206 22.4952C19.6597 21.5962 19.6558 20.6932 19.6539 19.7923C19.65 14.5193 19.6441 9.24445 19.6304 3.97153C19.6265 2.79499 19.0441 1.98783 17.7913 2.0621C17.6272 2.07187 17.4493 1.86862 17.2773 1.76503C17.2969 1.69468 17.3164 1.62627 17.336 1.55591C19.2982 1.17872 21.2604 0.801522 23.3105 0.408691C23.3105 0.680351 23.3105 0.901196 23.3105 1.12204C23.3105 7.9487 23.3105 14.7754 23.3125 21.604C23.3125 21.9479 23.3359 22.2939 23.3731 22.6359C23.4845 23.6893 24.0317 24.3694 25.091 24.5903C25.4076 24.6587 25.6577 24.7505 25.4447 25.1785Z" fill="#353938"/>
<path d="M49.0938 1.53881C51.0072 1.16943 52.9205 0.800055 54.9355 0.411133C54.9355 0.690609 54.9355 0.9095 54.9355 1.12839C54.9355 7.91596 54.9335 14.7035 54.9394 21.4931C54.9394 21.9328 54.955 22.3764 55.0195 22.8103C55.1622 23.7582 55.6977 24.3601 56.6495 24.5947C56.8254 24.6377 56.9641 24.835 57.1185 24.9601C56.9407 25.0442 56.7628 25.1986 56.583 25.1986C54.2631 25.2142 51.9433 25.2142 49.6234 25.1986C49.4456 25.1966 49.2678 25.0422 49.0919 24.9562C49.2482 24.8331 49.387 24.6474 49.5648 24.5947C50.6339 24.2741 51.1537 23.6644 51.2515 22.5347C51.2769 22.2299 51.273 21.9211 51.273 21.6142C51.2749 15.9582 51.273 10.3003 51.273 4.64432C51.273 4.39612 51.2729 4.14596 51.2593 3.89775C51.1909 2.66063 50.6886 2.15053 49.4632 2.0235C49.2951 2.00591 49.1407 1.84565 48.9805 1.74988C49.0176 1.67953 49.0567 1.60917 49.0938 1.53881Z" fill="#353938"/>
<path d="M49.6467 14.2555C49.2852 14.4138 49.162 14.232 49.0116 13.9272C48.48 12.8503 48.0187 11.7148 47.3269 10.7474C45.9881 8.87313 43.6409 9.02166 42.4233 10.9741C41.6631 12.1956 41.4246 13.5734 41.3211 14.9767C41.1706 17.0288 41.3484 19.0457 42.3041 20.9063C43.7953 23.8027 46.9106 24.1251 49.0116 21.6255C49.2461 21.3479 49.4279 21.0255 49.6702 20.7558C49.7679 20.6463 49.9634 20.6248 50.151 20.6326C49.3634 23.1225 47.9054 24.9284 45.2748 25.3916C42.7106 25.845 40.6566 24.8424 39.1185 22.7864C36.7146 19.5773 36.7361 13.2724 39.7439 10.2783C41.6885 8.34154 44.0298 7.84708 46.6233 8.51352C47.5575 8.75391 48.4389 9.21124 49.3321 9.5982C49.4708 9.65683 49.6311 9.864 49.6331 10.0067C49.6546 11.4236 49.6467 12.8386 49.6467 14.2555Z" fill="#353938"/>
<path d="M5.54993 33.6769C6.37273 33.9915 6.57404 34.658 6.65807 35.4065C6.73625 36.0984 6.83592 36.7902 6.92778 37.4996C6.961 37.4899 6.92388 37.5094 6.88674 37.5094C5.8177 37.5387 5.81769 37.5387 5.7102 36.458C5.66721 36.026 5.64571 35.5883 5.56167 35.1622C5.43659 34.5173 5.05156 34.1635 4.40271 34.1381C3.54669 34.1049 2.69067 34.1303 1.79166 34.1303C1.79166 35.2423 1.79166 36.3466 1.79166 37.4801C1.43596 37.4801 1.12132 37.4801 0.777344 37.4801C0.777344 34.8104 0.777344 32.1349 0.777344 29.4124C1.52978 29.4124 2.27048 29.4124 3.01119 29.4124C3.51737 29.4124 4.02356 29.4085 4.52975 29.4144C5.75319 29.4261 6.619 30.0476 6.86525 31.0854C7.133 32.213 6.72842 33.0417 5.54993 33.6769ZM1.79361 33.2C2.80012 33.2 3.78514 33.2567 4.75646 33.1805C5.47372 33.1238 5.84895 32.5394 5.84504 31.7577C5.84114 30.9427 5.51672 30.4306 4.78774 30.3779C3.80078 30.3036 2.80403 30.3603 1.79166 30.3603C1.79361 31.3121 1.79361 32.2482 1.79361 33.2Z" fill="#353938"/>
<path d="M31.7383 29.4214C33.1103 29.4214 34.447 29.3705 35.778 29.435C37.3688 29.5113 38.2893 30.9946 37.7499 32.4937C37.5389 33.078 37.0933 33.42 36.4796 33.6663C37.3317 33.9868 37.533 34.6532 37.619 35.3998C37.6972 36.0917 37.7949 36.7835 37.8887 37.5125C37.8242 37.5125 37.6913 37.5125 37.5584 37.5125C36.7473 37.5145 36.7532 37.5145 36.6868 36.6741C36.6477 36.1698 36.6145 35.6637 36.5226 35.1692C36.4034 34.5203 36.0164 34.1666 35.3676 34.1412C34.5135 34.108 33.6555 34.1334 32.7565 34.1334C32.7565 35.2435 32.7565 36.3457 32.7565 37.4812C32.3989 37.4812 32.0861 37.4812 31.7402 37.4812C31.7383 34.8135 31.7383 32.1399 31.7383 29.4214ZM32.7565 33.1933C33.765 33.1933 34.7636 33.2559 35.7487 33.1718C36.46 33.1112 36.8216 32.5132 36.806 31.7256C36.7903 30.9184 36.4542 30.42 35.7194 30.3692C34.7441 30.3028 33.7611 30.3536 32.7585 30.3536C32.7565 31.3132 32.7565 32.2611 32.7565 33.1933Z" fill="#353938"/>
<path d="M30.672 33.5087C30.4805 34.2045 30.3769 34.9413 30.0779 35.5882C29.3508 37.1654 27.6818 37.9432 25.8955 37.6403C24.1659 37.3452 22.919 36.0455 22.6883 34.3081C22.5144 32.9928 22.6707 31.7478 23.5092 30.6729C24.5782 29.3048 26.0381 29.0039 27.6368 29.3615C29.1906 29.7094 30.0642 30.796 30.4316 32.3048C30.5235 32.684 30.5332 33.0827 30.5801 33.4716C30.6114 33.4833 30.6407 33.497 30.672 33.5087ZM23.6597 33.4384C23.7066 33.8097 23.7261 34.1478 23.7945 34.4742C24.0857 35.8794 25.0961 36.7374 26.4701 36.7647C27.9789 36.794 29.0284 36.0416 29.345 34.5875C29.4779 33.9699 29.4915 33.3015 29.4231 32.6703C29.2629 31.2143 28.2134 30.2254 26.8649 30.155C25.2642 30.071 24.201 30.8293 23.8239 32.3459C23.73 32.7113 23.7085 33.0924 23.6597 33.4384Z" fill="#353938"/>
<path d="M39.2383 37.4916C39.2383 34.7906 39.2383 32.1268 39.2383 29.3691C40.5594 29.418 41.8689 29.375 43.1509 29.5411C44.4115 29.7053 45.1581 30.6063 45.5158 31.7906C45.8343 32.846 45.846 33.9229 45.5607 34.9919C45.1698 36.4538 44.177 37.3587 42.6741 37.474C41.5464 37.56 40.405 37.4916 39.2383 37.4916ZM40.2565 36.5906C40.9679 36.5906 41.6402 36.6062 42.3125 36.5867C43.4812 36.5515 44.2552 35.9163 44.5444 34.775C44.7731 33.8701 44.7574 32.9613 44.521 32.0642C44.3118 31.2668 43.8584 30.6004 43.022 30.4558C42.1229 30.3014 41.1927 30.3287 40.2565 30.276C40.2565 32.4336 40.2565 34.4818 40.2565 36.5906Z" fill="#353938"/>
<path d="M13.9646 29.4448C13.9646 29.7341 13.9646 30.0077 13.9646 30.3282C12.403 30.3282 10.8649 30.3282 9.30534 30.3282C9.30534 31.1842 9.30534 31.9953 9.30534 32.8494C10.7027 32.8494 12.1001 32.8494 13.5288 32.8494C13.5288 33.1523 13.5288 33.4103 13.5288 33.723C12.1294 33.723 10.732 33.723 9.30926 33.723C9.30926 34.6826 9.30926 35.5914 9.30926 36.5588C10.8904 36.5588 12.4812 36.5588 14.0936 36.5588C14.0936 36.8969 14.0936 37.1725 14.0936 37.4812C12.1607 37.4812 10.2317 37.4812 8.28125 37.4812C8.28125 34.8057 8.28125 32.1419 8.28125 29.4448C10.1711 29.4448 12.0571 29.4448 13.9646 29.4448Z" fill="#353938"/>
<path d="M52.6348 31.7672C52.4941 31.777 52.3964 31.777 52.3006 31.7907C51.8785 31.8513 51.6029 31.7751 51.5189 31.2611C51.4466 30.8194 51.1182 30.4871 50.7 30.2995C49.971 29.9731 49.2225 29.977 48.4915 30.2819C48.0205 30.4774 47.7762 30.8545 47.788 31.3783C47.7997 31.8747 48.0596 32.2187 48.5052 32.3692C49.1013 32.5685 49.7209 32.6975 50.3267 32.8715C50.784 33.0024 51.2531 33.1158 51.683 33.3132C53.1469 33.9835 53.3501 36.0982 52.0583 37.0617C50.8857 37.9372 48.6225 37.8864 47.5007 36.9483C46.8401 36.3952 46.5117 35.678 46.4727 34.7868C46.8127 34.7868 47.1274 34.7868 47.4498 34.7868C47.4928 34.9763 47.5261 35.1542 47.5769 35.3281C47.7235 35.8324 47.9893 36.2604 48.4661 36.5047C49.2831 36.921 50.1391 36.9718 50.9951 36.6512C51.5853 36.4304 51.8785 35.9614 51.8707 35.3438C51.8628 34.7242 51.5599 34.2884 50.9795 34.1008C50.3267 33.8878 49.6524 33.7451 48.9958 33.5457C48.5814 33.4187 48.1613 33.2858 47.7821 33.0825C46.5548 32.4239 46.4492 30.6747 47.5652 29.8305C48.5912 29.0546 50.5984 29.0526 51.6244 29.8363C52.2498 30.3073 52.5137 30.9699 52.6348 31.7672Z" fill="#353938"/>
<path d="M20.7934 34.5674C21.1335 34.5674 21.4501 34.5674 21.7648 34.5674C21.8371 36.2169 20.5003 37.5654 18.7453 37.6729C15.8743 37.8488 14.4007 35.5328 14.6333 32.9765C14.6704 32.5622 14.7544 32.1381 14.8912 31.7452C15.6222 29.6462 17.8658 28.6534 19.9316 29.4957C20.9146 29.8964 21.6553 30.8853 21.6495 31.8351C21.4013 31.8351 21.1511 31.8547 20.9068 31.8254C20.815 31.8136 20.6821 31.7081 20.6586 31.6202C20.1602 29.7928 17.5062 29.7772 16.5192 30.9166C15.4482 32.1537 15.3642 34.5595 16.4078 35.8201C17.1427 36.7074 18.1081 36.9302 19.183 36.6605C20.2228 36.4025 20.6254 35.5915 20.7934 34.5674Z" fill="#353938"/>
</svg>
