<svg width="24" height="24" viewBox="0 0 24 24" fill="none" xmlns="http://www.w3.org/2000/svg">
<path d="M3.32433 0.60498C6.98878 0.60498 10.6532 0.60498 14.3177 0.60498C14.8796 0.799411 15.0984 1.19719 15.0805 1.78405C15.0562 2.5695 15.0746 3.35614 15.0746 4.14279C15.0746 4.22187 15.0746 4.30095 15.0746 4.39965C15.3588 4.39965 15.6169 4.39905 15.8749 4.39965C16.5973 4.40084 16.9767 4.77543 16.9773 5.49369C16.9785 6.94746 16.9773 8.40123 16.9779 9.85501C16.9779 9.92754 16.9779 10.0001 16.9779 10.0708C14.0977 10.2486 11.9536 11.5502 10.8495 14.2229C9.74233 16.9021 10.353 19.3375 12.2794 21.4792C12.2331 21.484 12.2039 21.4899 12.1748 21.4899C9.32671 21.4899 6.47803 21.5018 3.62995 21.484C2.06856 21.4739 0.835975 20.2038 0.834786 18.6407C0.830624 13.5819 0.831813 8.52372 0.834192 3.46495C0.833597 2.11643 1.73559 0.992058 3.04963 0.67871C3.14179 0.65671 3.23276 0.629953 3.32433 0.60498ZM13.16 2.50767C13.0744 2.50767 13.0155 2.50767 12.9567 2.50767C9.89454 2.50767 6.83181 2.50767 3.76968 2.50826C3.70308 2.50826 3.6359 2.50945 3.5699 2.5154C3.13406 2.55583 2.77077 2.92864 2.73985 3.36566C2.69763 3.9656 3.11385 4.39846 3.74946 4.39846C6.82646 4.40084 9.90406 4.39965 12.9811 4.39905C13.0381 4.39905 13.0946 4.39014 13.1606 4.38419C13.16 3.75868 13.16 3.14685 13.16 2.50767Z" fill="black"/>
<path d="M23.6205 22.6363C23.539 22.7838 23.479 22.949 23.3719 23.0745C23.0045 23.5044 22.3903 23.5002 21.9568 23.0703C21.2249 22.3444 20.4971 21.6136 19.7699 20.8834C19.7128 20.8264 19.6688 20.7556 19.6183 20.6914C19.6141 20.7187 19.61 20.7461 19.6058 20.7734C19.0974 20.9685 18.6015 21.2123 18.0777 21.3502C15.5031 22.0257 12.7799 20.2621 12.3138 17.6429C11.8381 14.9673 13.5452 12.5271 16.2214 12.0574C18.7769 11.6085 21.326 13.4814 21.6684 16.0524C21.8189 17.1821 21.6137 18.2357 21.0197 19.2085C20.9472 19.3274 20.9585 19.3928 21.0542 19.4879C21.7398 20.1658 22.4271 20.8424 23.0978 21.5351C23.2988 21.7426 23.4474 22.0013 23.6205 22.2361C23.6205 22.3693 23.6205 22.5025 23.6205 22.6363ZM16.9736 13.9024C15.4003 13.903 14.1326 15.1689 14.1302 16.7415C14.1279 18.3172 15.4181 19.6081 16.986 19.5979C18.548 19.5878 19.8312 18.2964 19.8252 16.7403C19.8193 15.1736 18.5409 13.9012 16.9736 13.9024Z" fill="black"/>
</svg>
