<svg width="109" height="37" viewBox="0 0 109 37" fill="none" xmlns="http://www.w3.org/2000/svg">
<path d="M51.9336 15.1612C53.8118 13.4785 55.6841 11.8212 57.529 10.1346C57.8495 9.8414 58.0645 9.43293 58.3284 9.07919C57.8984 8.97952 57.4743 8.81535 57.0404 8.7919C56.1942 8.74695 55.3421 8.77822 54.5134 8.77822C54.2496 8.1235 54.5349 8.02382 55.0548 8.00233C56.9486 7.9222 58.8678 7.97301 60.7244 7.66226C64.4261 7.04077 66.3003 4.85186 66.6697 1.11899C66.6873 0.935279 66.8866 0.769156 67.0019 0.593262C67.0977 0.786746 67.2755 0.978275 67.2775 1.17371C67.297 3.31963 67.2892 5.46749 67.2892 7.71308C68.5361 7.71308 69.7322 7.71308 70.9908 7.71308C70.9908 8.09614 70.9908 8.37952 70.9908 8.75867C69.781 8.75867 68.5849 8.75867 67.2892 8.75867C67.2892 9.20036 67.2892 9.54824 67.2892 9.89808C67.2892 12.8453 67.2736 15.7925 67.3029 18.7397C67.3087 19.3045 67.4026 19.9006 67.6078 20.4224C68.0026 21.4211 68.9895 21.7358 69.9178 21.1827C70.166 21.0341 70.4573 20.6335 70.426 20.3872C69.9706 16.8713 72.7145 14.5749 76.7093 14.8173C77.1197 14.8427 77.5263 14.8954 78.1087 14.9521C78.0246 13.8518 78.0578 12.7984 77.8409 11.7977C77.493 10.203 75.7868 9.44661 74.0787 10.0173C73.0175 10.373 72.2455 11.0981 71.6006 11.9893C71.4579 12.1867 71.2312 12.3254 70.9126 12.6049C71.0944 10.371 73.3302 8.25249 75.5621 7.9691C79.1464 7.51373 81.4643 9.56192 81.4741 13.1932C81.4819 15.7827 81.4956 18.3703 81.5034 20.9599C81.5054 21.6498 81.6383 22.2029 82.5432 21.9625C82.3653 22.9377 81.5288 23.7136 80.5907 23.8328C79.3653 23.9892 78.6754 23.5279 77.9914 22.0465C76.9947 23.1976 75.826 23.9599 74.2488 23.8875C72.6755 23.8172 71.5595 23.053 70.7876 21.6107C70.0371 22.5527 69.2494 23.3227 68.069 23.5494C66.3257 23.8856 64.7446 23.1058 64.1857 21.4211C63.8886 20.5241 63.7518 19.541 63.7322 18.5931C63.6755 15.7573 63.7146 12.9196 63.7087 10.0818C63.7068 8.99711 63.4762 8.78603 62.3954 8.7704C61.3381 8.75476 60.3511 8.99906 59.5655 9.71632C58.0625 11.0883 56.6007 12.5033 55.0548 13.9612C56.5968 16.5567 58.0704 19.1618 59.6886 21.6713C60.0775 22.2752 60.9551 22.5625 61.6 23.0042C61.7798 23.1273 61.9342 23.2817 62.1023 23.4224C61.9205 23.4986 61.7388 23.6374 61.5551 23.6393C60.0678 23.6569 58.5805 23.6647 57.0932 23.6335C56.8704 23.6296 56.5518 23.4634 56.4463 23.2778C54.9375 20.6022 53.4541 17.9032 51.9336 15.1612ZM78.0461 15.9391C76.5139 15.5677 75.0012 16.0817 74.2918 17.1586C73.5159 18.3371 73.5119 20.3208 74.282 21.384C74.7921 22.0876 75.566 22.3553 76.3888 22.113C77.2038 21.8726 78.0285 21.0263 78.0383 20.3462C78.0598 18.8882 78.0461 17.4322 78.0461 15.9391Z" fill="#353938"/>
<path d="M11.7668 10.885C12.6365 11.2056 13.3949 11.4401 14.118 11.7567C15.8222 12.5033 16.86 13.8127 17.2763 15.6264C17.9408 18.5228 16.989 21.3957 14.7531 22.5644C13.7134 23.1077 12.4685 23.4791 11.3037 23.5201C7.86983 23.6432 4.42817 23.5651 0.710938 23.5651C0.986505 23.3032 1.11941 23.0784 1.30312 23.0178C2.95457 22.4863 3.11484 22.285 3.11484 20.569C3.11484 15.4466 3.1246 10.3241 3.1031 5.20169C3.10115 4.55089 2.98386 3.88835 2.83337 3.25122C2.66334 2.53005 2.15327 2.08641 1.44383 1.85384C1.21712 1.77957 1.01972 1.61736 0.748059 1.45905C0.949361 1.29684 0.988435 1.23821 1.02752 1.23821C3.94542 1.23234 6.86918 1.10336 9.77925 1.26361C13.905 1.49032 15.2046 5.06098 14.3388 8.17236C13.9734 9.47984 13.0098 10.289 11.7668 10.885ZM6.8555 11.7645C6.8555 15.4036 6.8555 18.943 6.8555 22.4765C8.13758 22.4765 9.37664 22.5644 10.5981 22.453C11.976 22.3279 12.9708 21.5364 13.3265 20.1684C13.7975 18.3586 13.8932 16.5234 13.2483 14.7234C12.7069 13.2147 11.7845 12.0186 10.1018 11.7919C9.05616 11.6492 7.97146 11.7645 6.8555 11.7645ZM6.83203 10.459C7.56297 10.459 8.21772 10.4688 8.87244 10.457C10.1311 10.4336 11.0906 9.81404 11.3818 8.60037C11.6125 7.63099 11.7434 6.58344 11.6457 5.59648C11.3819 2.92289 10.1584 1.8382 6.83203 2.35416C6.83203 5.01212 6.83203 7.67203 6.83203 10.459Z" fill="#353938"/>
<path d="M86.7419 23.1234C86.7419 25.3651 86.7419 27.6381 86.7419 30.0165C85.2429 29.7371 83.8435 29.4771 82.4462 29.2172C82.1217 29.1566 81.7934 29.1117 81.4787 29.0178C81.3556 28.9807 81.2657 28.8302 81.1602 28.7306C81.2696 28.6406 81.3829 28.4706 81.4904 28.4726C83.1263 28.5136 83.2826 27.3859 83.2846 26.014C83.2944 21.472 83.2905 16.93 83.2846 12.388C83.2846 11.7567 83.2494 11.1255 83.2181 10.4942C83.1712 9.51897 82.6631 8.92679 81.725 8.65904C81.5354 8.60432 81.3888 8.40302 81.2208 8.26817C81.424 8.18218 81.6253 8.02582 81.8305 8.02192C83.2064 8.00042 84.5842 8.04732 85.9582 7.99455C86.6481 7.96719 86.8337 8.23299 86.7692 8.85448C86.736 9.17109 86.7634 9.49357 86.7634 9.9548C87.2461 9.49552 87.5901 9.11442 87.9849 8.79976C89.8924 7.27925 92.3842 7.54114 93.9379 9.42321C94.7998 10.4668 95.2493 11.6922 95.4819 13.0193C95.8864 15.3352 95.8669 17.6257 95.0363 19.8518C94.0317 22.541 91.9112 24.0303 89.3197 23.7996C88.4969 23.7254 87.6956 23.3814 86.7419 23.1234ZM86.7653 15.3763C86.777 15.3763 86.7868 15.3763 86.7986 15.3763C86.7986 16.6407 86.7067 17.913 86.8298 19.1638C86.9158 20.0414 87.1621 20.9619 87.5764 21.7339C88.2683 23.0198 89.9178 23.0804 90.7953 21.9058C91.1627 21.4133 91.4422 20.8114 91.6122 20.2173C92.218 18.0928 92.1927 15.9157 91.8272 13.7678C91.6474 12.7085 91.2584 11.6512 90.7796 10.6857C90.334 9.78868 89.3627 9.53265 88.4265 9.81408C87.4826 10.0975 86.7692 10.9945 86.7673 11.9111C86.7614 13.0681 86.7653 14.2212 86.7653 15.3763Z" fill="#353938"/>
<path d="M31.0707 22.0697C29.3294 23.8736 27.5509 24.3544 25.79 23.5296C22.9776 22.2124 22.6649 17.8971 25.2565 15.9818C26.6304 14.9675 28.2115 14.7154 29.8766 14.8268C30.2558 14.8522 30.633 14.8932 31.0532 14.9304C31.0532 13.9727 31.1743 13.0541 31.0277 12.1786C30.7092 10.2848 29.0245 9.39359 27.1522 10.0229C26.0891 10.3806 25.3307 11.1193 24.678 11.9968C24.5392 12.1844 24.3379 12.3271 24.1112 12.5401C24.0272 12.3232 23.9627 12.2411 23.9764 12.1766C24.8109 8.37145 29.8688 6.57342 32.8727 9.01639C34.1 10.0131 34.5417 11.3714 34.5535 12.8919C34.573 15.2861 34.5574 17.6821 34.5593 20.0762C34.5593 20.3518 34.5633 20.6274 34.5711 20.901C34.5926 21.5948 34.7079 22.2026 35.6558 21.9798C35.4115 22.9785 34.5925 23.7251 33.6681 23.8365C32.4545 23.9831 31.7939 23.5453 31.0707 22.0697ZM31.1137 15.9603C29.8825 15.4815 27.932 16.1597 27.3242 17.2131C26.5659 18.5264 26.6089 20.5746 27.504 21.5674C28.059 22.1831 28.7744 22.3785 29.5268 22.0834C30.3027 21.7785 31.0571 21.3134 31.0962 20.3655C31.1587 18.9134 31.1137 17.4554 31.1137 15.9603Z" fill="#353938"/>
<path d="M108.004 19.5016C107.583 21.1218 106.612 22.3628 105.152 23.1837C102.234 24.8253 98.6695 23.6566 97.0532 20.4632C95.5171 17.43 95.5757 14.2854 96.9809 11.2287C98.0969 8.80136 100.468 7.5486 102.881 7.88084C105.5 8.2424 107.259 9.97203 107.781 12.7473C107.937 13.5818 107.998 14.4319 108.115 15.372C105.246 15.372 102.453 15.372 99.5959 15.372C99.6369 17.1837 99.9125 18.8371 100.925 20.2775C102.201 22.0912 104.603 22.271 106.424 20.684C106.905 20.2658 107.288 19.7361 107.716 19.2573C107.81 19.3394 107.908 19.4215 108.004 19.5016ZM104.621 14.4222C104.583 12.888 104.433 11.4456 103.767 10.1186C103.456 9.49712 103.038 8.93425 102.225 8.91666C101.455 8.90103 101.005 9.38571 100.669 9.97398C99.889 11.3362 99.6682 12.8391 99.5959 14.4222C101.284 14.4222 102.903 14.4222 104.621 14.4222Z" fill="#353938"/>
<path d="M53.7394 23.6198C51.0658 23.6198 48.6502 23.6198 45.9531 23.6198C46.2736 23.313 46.4065 23.0765 46.5903 23.0296C47.716 22.7442 48.142 21.9684 48.1459 20.8934C48.1616 16.93 48.1713 12.9665 48.1772 9.00103C48.1791 7.37694 48.1928 5.75285 48.1498 4.12876C48.1108 2.6317 47.8958 2.42063 46.4398 2.12943C46.3225 2.10597 46.2189 2.01216 46.1075 1.95158C46.0978 1.85777 46.086 1.76396 46.0762 1.66819C47.886 1.30663 49.6938 0.947024 51.6111 0.563965C51.6111 0.941161 51.6111 1.23432 51.6111 1.52943C51.6111 7.80691 51.613 14.0824 51.6091 20.3599C51.6091 21.6244 51.7908 22.7501 53.3153 23.057C53.4443 23.0843 53.5322 23.3364 53.7394 23.6198Z" fill="#353938"/>
<path d="M24.2217 23.6198C21.7494 23.6198 19.277 23.6198 16.8067 23.6198C16.7657 23.5514 16.7246 23.4849 16.6836 23.4165C16.8732 23.2797 17.0451 23.0745 17.2562 23.0178C18.208 22.7599 18.6771 22.1345 18.7494 21.1788C18.7787 20.7957 18.8158 20.4107 18.8158 20.0257C18.8197 14.958 18.8197 9.89026 18.8158 4.82255C18.8158 4.46685 18.7924 4.10724 18.7533 3.7535C18.6204 2.58282 18.3135 2.29162 17.1702 2.15481C17.0022 2.13527 16.8517 1.96719 16.6934 1.86752C16.8263 1.76198 16.9455 1.58804 17.094 1.55873C18.763 1.23039 20.436 0.925508 22.2282 0.591309C22.2282 0.986094 22.2282 1.30661 22.2282 1.62909C22.2282 7.77171 22.2262 13.9124 22.2301 20.055C22.2301 20.44 22.2653 20.8231 22.2946 21.2061C22.3669 22.1716 22.8594 22.7755 23.8112 23.0218C24.0125 23.0745 24.1767 23.27 24.3565 23.4009C24.3116 23.4732 24.2666 23.5475 24.2217 23.6198Z" fill="#353938"/>
<path d="M47.1141 19.4118C46.26 23.2014 42.0737 25.0854 38.7317 23.0998C37.2425 22.2144 36.3142 20.864 35.7963 19.2457C35.1181 17.1252 35.0692 14.9734 35.7141 12.8295C36.9219 8.81519 40.4594 6.97611 44.4561 8.26796C46.6939 8.99108 46.6939 8.99108 46.6939 11.3168C46.6939 12.0419 46.6939 12.7669 46.6939 13.494C46.6001 13.5194 46.5082 13.5448 46.4144 13.5702C46.2717 13.3533 46.1134 13.1441 45.9903 12.9155C45.5076 12.0262 45.1343 11.0569 44.5382 10.2517C43.2014 8.44581 41.1063 8.59825 39.9434 10.5057C38.4347 12.9819 38.6027 17.9617 40.2776 20.305C41.7512 22.3688 44.3584 22.3473 46.1056 20.2522C46.3812 19.9219 46.6372 19.5721 46.903 19.232C46.9714 19.2926 47.0437 19.3513 47.1141 19.4118Z" fill="#353938"/>
<path d="M38.1783 30.6245C38.1783 32.4733 38.1783 34.3221 38.1783 36.2042C37.8402 36.2042 37.5978 36.2042 37.3008 36.2042C37.3008 33.6987 37.3008 31.2088 37.3008 28.7228C38.4441 28.4531 38.4636 28.4629 38.8721 29.5065C39.5503 31.2381 40.2304 32.9717 40.9906 34.9104C41.446 33.7319 41.8291 32.741 42.2121 31.7502C42.4896 31.031 42.8239 30.3293 43.031 29.5906C43.2675 28.7502 43.6975 28.3691 44.6454 28.6818C44.6454 31.1267 44.6454 33.6186 44.6454 36.1964C44.4187 36.2101 44.1607 36.2238 43.7932 36.2453C43.7932 34.3143 43.7932 32.4401 43.7932 30.5658C43.7287 30.5541 43.6642 30.5443 43.5998 30.5326C42.9919 32.0766 42.3822 33.6205 41.7724 35.1625C41.6923 35.3677 41.6473 35.6003 41.5184 35.7684C41.3737 35.956 41.1509 36.2042 40.9613 36.2042C40.7718 36.2042 40.4864 35.9716 40.4043 35.7723C39.7731 34.2479 39.1809 32.7078 38.575 31.1736C38.4988 30.9821 38.4187 30.7906 38.3405 30.599C38.2858 30.6069 38.2311 30.6166 38.1783 30.6245Z" fill="#353938"/>
<path d="M9.11067 34.7597C9.11067 32.5845 9.11067 30.6223 9.11067 28.6327C9.43315 28.6327 9.67352 28.6327 9.97841 28.6327C9.97841 31.1519 9.97841 33.6399 9.97841 36.1552C9.353 36.3819 8.94846 36.204 8.57713 35.6118C7.45531 33.8255 6.27094 32.0783 4.99278 30.1357C4.99278 32.264 4.99278 34.193 4.99278 36.1864C4.65076 36.2079 4.39083 36.2255 4.07031 36.247C4.07031 33.7005 4.07031 31.2106 4.07031 28.6953C4.69962 28.4647 5.11787 28.6093 5.49506 29.2132C6.6247 31.0171 7.81883 32.7878 9.11067 34.7597Z" fill="#353938"/>
<path d="M53.6041 36.1963C53.2269 36.1963 52.965 36.1963 52.6602 36.1963C52.6602 33.6693 52.6602 31.1775 52.6602 28.6954C53.3442 28.4472 53.7507 28.6563 54.1181 29.2446C55.2399 31.0368 56.4223 32.7918 57.681 34.711C57.681 32.6061 57.681 30.6518 57.681 28.6505C58.0327 28.6505 58.2907 28.6505 58.5975 28.6505C58.5975 31.1736 58.5975 33.6674 58.5975 36.1494C57.9076 36.4113 57.5207 36.1534 57.1591 35.5768C56.0451 33.8081 54.8744 32.0765 53.6041 30.1475C53.6041 32.27 53.6041 34.2146 53.6041 36.1963Z" fill="#353938"/>
<path d="M18.9557 31.8243C20.099 31.8243 21.172 31.7989 22.241 31.8438C22.4795 31.8536 22.7081 32.1175 22.9427 32.264C22.7081 32.4106 22.4795 32.6706 22.2391 32.6823C21.17 32.7272 20.0971 32.7018 18.9616 32.7018C18.9616 33.5813 18.9616 34.3924 18.9616 35.3148C20.4234 35.3148 21.8971 35.3148 23.4195 35.3148C23.443 35.6529 23.4567 35.8855 23.4782 36.1826C21.6215 36.1826 19.8196 36.1826 17.957 36.1826C17.957 33.6907 17.957 31.2009 17.957 28.6562C19.7297 28.6562 21.4769 28.6562 23.2847 28.6562C23.2984 28.8947 23.3101 29.1253 23.3277 29.438C21.8541 29.438 20.4332 29.438 18.9557 29.438C18.9557 30.2413 18.9557 30.9683 18.9557 31.8243Z" fill="#353938"/>
<path d="M51.5679 28.6523C51.5679 28.9357 51.5679 29.1468 51.5679 29.44C50.1178 29.44 48.6969 29.44 47.2233 29.44C47.2233 30.2471 47.2233 30.9722 47.2233 31.8224C48.3354 31.8224 49.4278 31.7969 50.5164 31.8419C50.7529 31.8517 50.9796 32.1194 51.2122 32.268C50.9757 32.4126 50.7451 32.6706 50.5028 32.6803C49.4337 32.7253 48.3608 32.6999 47.2292 32.6999C47.2292 33.5833 47.2292 34.3943 47.2292 35.3168C48.6989 35.3168 50.1725 35.3168 51.6949 35.3168C51.7145 35.6569 51.7262 35.8894 51.7438 36.1826C49.8891 36.1826 48.0852 36.1826 46.2266 36.1826C46.2266 33.6829 46.2266 31.195 46.2266 28.6523C48.0031 28.6523 49.7503 28.6523 51.5679 28.6523Z" fill="#353938"/>
<path d="M23.9453 33.6967C24.5336 33.5188 24.8248 33.6205 25.0085 34.2361C25.4014 35.5495 27.4456 36.0791 28.5245 35.2035C29.2359 34.625 29.1186 33.4837 28.2626 33.0908C27.7701 32.8641 27.217 32.7703 26.6971 32.6003C26.1518 32.4205 25.5772 32.2895 25.0808 32.0179C24.0919 31.4765 23.8789 30.0615 24.6684 29.2505C25.6046 28.2889 26.7909 28.3104 27.9772 28.6173C29.0287 28.8889 29.5349 29.6609 29.6932 30.7319C29.1518 30.9664 28.8567 30.8824 28.6241 30.2941C28.2 29.2192 26.3981 28.8576 25.5303 29.6179C24.9225 30.1514 25.032 31.0446 25.8098 31.3593C26.4665 31.6251 27.1896 31.7189 27.8658 31.9397C28.3564 32.1 28.8762 32.2661 29.2808 32.5671C30.1134 33.1866 30.2033 34.6524 29.5368 35.4752C28.8352 36.341 27.1642 36.6654 25.7746 36.2081C24.6685 35.8426 24.0333 34.9827 23.9453 33.6967Z" fill="#353938"/>
<path d="M65.7902 33.6985C66.3355 33.5089 66.6403 33.6027 66.8377 34.2594C67.2286 35.563 69.312 36.075 70.3654 35.1877C71.0436 34.6171 70.9478 33.5011 70.1368 33.1141C69.6247 32.8698 69.0404 32.7721 68.4931 32.5962C67.9733 32.4282 67.426 32.3011 66.9491 32.049C65.9739 31.535 65.7296 30.2353 66.3902 29.3481C66.9726 28.5683 68.4111 28.2223 69.6658 28.5643C70.7739 28.8653 71.3387 29.5454 71.4697 30.7533C70.9478 30.9663 70.6644 30.8529 70.4358 30.2705C70.0195 29.2073 68.1765 28.8634 67.3342 29.6334C66.7381 30.1767 66.8671 31.0601 67.6547 31.3708C68.3133 31.6308 69.0365 31.7226 69.7127 31.9435C70.2013 32.1037 70.7211 32.2757 71.1218 32.5806C71.9465 33.2119 72.0579 34.7128 71.3348 35.4829C70.3302 36.5519 69.0423 36.5578 67.7348 36.2294C66.5778 35.9382 65.884 35.0803 65.7394 33.8783C65.7316 33.8295 65.7668 33.7747 65.7902 33.6985Z" fill="#353938"/>
<path d="M10.8945 28.7149C11.7017 28.3905 12.0027 28.7188 12.2118 29.3951C12.7844 31.2517 13.4157 33.0908 14.0978 35.1605C14.7799 33.0849 15.4189 31.2361 15.9857 29.3657C16.1851 28.7052 16.4763 28.4276 17.2385 28.7013C16.9492 29.5436 16.6639 30.3898 16.3688 31.2341C15.8411 32.739 15.3271 34.2498 14.7564 35.739C14.6704 35.9618 14.3206 36.1807 14.0724 36.21C13.8613 36.2334 13.4782 36.0302 13.4098 35.8426C12.5499 33.4915 11.7349 31.1266 10.8945 28.7149Z" fill="#353938"/>
<path d="M36.3398 29.4712C35.5033 29.4712 34.7391 29.4712 33.9026 29.4712C33.9026 31.7207 33.9026 33.9116 33.9026 36.1884C33.5489 36.208 33.2675 36.2217 32.8805 36.2412C32.8805 33.9683 32.8805 31.7539 32.8805 29.4654C31.9952 29.4654 31.2076 29.4654 30.3672 29.4654C30.3672 29.1605 30.3672 28.9318 30.3672 28.6504C32.3548 28.6504 34.3209 28.6504 36.3398 28.6504C36.3398 28.8966 36.3398 29.1273 36.3398 29.4712Z" fill="#353938"/>
<path d="M59.4492 29.4927C59.4492 29.1488 59.4492 28.9396 59.4492 28.6641C61.4251 28.6641 63.3912 28.6641 65.4296 28.6641C65.4511 28.8673 65.4765 29.0999 65.5098 29.4224C64.6752 29.4224 63.8896 29.4224 63.0023 29.4224C63.0023 31.7168 63.0023 33.9272 63.0023 36.1884C62.6368 36.2119 62.3729 36.2295 62.0036 36.2529C62.0036 33.9995 62.0036 31.7852 62.0036 29.4947C61.1202 29.4927 60.3346 29.4927 59.4492 29.4927Z" fill="#353938"/>
<path d="M2.50447 36.2452C2.16246 36.2276 1.89863 36.2139 1.59375 36.1982C1.59375 33.679 1.59375 31.2107 1.59375 28.6504C1.88495 28.6348 2.16637 28.6211 2.50447 28.6035C2.50447 31.1579 2.50447 33.6478 2.50447 36.2452Z" fill="#353938"/>
</svg>
