<svg width="11" height="26" viewBox="0 0 11 26" fill="none" xmlns="http://www.w3.org/2000/svg">
<path d="M4.79098 0.981445C4.93402 1.09958 5.09985 1.19939 5.21075 1.34197C5.2802 1.43058 5.26672 1.58131 5.2916 1.70454C5.30922 1.7962 5.30404 1.90211 5.35171 1.97646C5.43774 2.10988 5.40043 2.18728 5.31129 2.30542C5.20868 2.44087 5.1382 2.61197 5.09674 2.77797C5.04077 3.00407 5.02419 3.23932 4.99206 3.47051C4.962 3.69253 4.85525 3.8677 4.66454 3.99195C4.47382 4.1162 4.55571 4.29545 4.60649 4.43599C4.63759 4.52358 4.77129 4.57857 4.86561 4.63866C4.89152 4.65496 4.96407 4.64884 4.97755 4.62949C5.1268 4.39933 5.32477 4.17934 5.39421 3.92575C5.44189 3.75058 5.41597 3.64161 5.65229 3.62226C6.08346 3.58763 6.08139 3.56828 6.31356 3.95223C6.32599 3.9726 6.33636 3.99501 6.35294 4.01028C7.13029 4.71606 7.60085 5.66219 8.31601 6.41889C8.70573 6.83034 8.70987 7.35993 8.61244 7.87933C8.55958 8.16144 8.43832 8.20523 8.16365 8.11765C7.64956 7.9547 7.23601 7.64611 6.86392 7.27133C6.73229 7.13893 6.58615 7.02079 6.43793 6.88941C6.383 7.38641 6.35191 7.89155 6.26588 8.38753C6.17882 8.8937 6.22442 9.37542 6.33947 9.8714C6.43379 10.2798 6.40995 10.7147 6.48976 11.1271C6.59859 11.6863 6.77168 12.2332 6.88983 12.7913C7.03287 13.4645 7.13133 14.1468 7.28265 14.818C7.35521 15.1408 7.49513 15.4504 7.62365 15.759C7.68273 15.9016 7.77912 16.033 7.87344 16.1582C8.57617 17.0942 8.85912 18.1686 8.89022 19.3052C8.90887 19.9988 9.12031 20.5864 9.59087 21.0966C9.82615 21.3512 10.0459 21.6201 10.2698 21.8849C10.4885 22.1426 10.59 22.443 10.5703 22.775C10.5527 23.0744 10.5123 23.3728 10.4843 23.6712C10.4802 23.7161 10.4905 23.7619 10.4957 23.8169C10.5973 23.8291 10.6906 23.8403 10.845 23.8586C10.5848 24.2334 10.7341 24.6225 10.7559 25.0186C8.12219 25.0186 5.50511 25.0186 2.87248 25.0186C2.82791 24.6327 3.06526 24.2355 2.74396 23.8617C2.9129 23.8423 2.99893 23.8332 3.10672 23.821C3.10672 23.3372 3.10672 22.8555 3.10672 22.4338C3.48503 22.1996 3.45912 21.8391 3.53064 21.5397C3.6602 20.9978 3.46741 20.5854 2.94607 20.3766C3.07252 20.1189 3.1886 19.8786 3.30365 19.6433C3.46119 19.7004 3.60734 19.7533 3.75348 19.8063C3.76903 19.7849 3.78457 19.7645 3.80012 19.7431C3.76281 19.6525 3.73275 19.5588 3.68715 19.4732C3.22281 18.6096 3.01344 17.7012 3.07563 16.7163C3.12953 15.8496 2.95229 15.0064 2.61233 14.2089C2.40711 14.1682 2.19878 14.1275 1.99045 14.0857C1.95935 14.0796 1.92929 14.0694 1.89924 14.0592C1.59348 13.9594 1.04104 13.3769 0.943613 13.0795C0.581886 11.9735 0.538354 10.8481 0.695897 9.70539C0.790216 9.01693 0.881425 8.32846 0.958124 7.63796C0.986108 7.39048 0.987145 7.13689 0.967452 6.88737C0.914592 6.22233 1.27217 5.8394 1.84016 5.57461C2.16976 5.42082 2.49313 5.25074 2.802 5.06233C3.03002 4.9228 3.22488 4.25675 3.0435 4.11111C2.84553 3.95223 2.8134 3.76688 2.71183 3.58254C2.62684 3.42774 2.5491 3.332 2.73048 3.15887C2.65068 3.10285 2.56776 3.06925 2.52734 3.00814C2.48484 2.94398 2.48173 2.85435 2.46722 2.7739C2.41851 2.51012 2.52734 2.28403 2.63098 2.05182C2.66933 1.96729 2.6372 1.85221 2.6372 1.75139C2.65897 1.76361 2.68073 1.77583 2.7025 1.78907C2.81548 1.66176 2.92845 1.53446 3.04039 1.40613C3.0663 1.37762 3.09221 1.32059 3.11501 1.3216C3.3534 1.33892 3.49333 1.15152 3.68404 1.07718C3.80219 1.03135 3.96492 1.05885 4.09551 1.09449C4.26653 1.14134 4.40542 1.15254 4.50388 0.981445C4.59924 0.981445 4.69459 0.981445 4.79098 0.981445ZM9.0944 22.3402C9.10684 22.3198 9.11824 22.2984 9.13068 22.278C9.04361 22.2047 8.96692 22.1039 8.86638 22.0621C8.48392 21.9053 8.41448 21.6028 8.40411 21.2423C8.39789 21.0284 8.35125 20.8084 8.28181 20.6047C8.17609 20.2941 8.04239 19.9926 7.90557 19.6932C7.76254 19.3806 7.64853 19.0394 7.43916 18.7746C7.06396 18.3 6.8888 17.7612 6.74473 17.197C6.69498 17.0025 6.64212 16.7825 6.51463 16.6399C6.13321 16.2132 5.95908 15.6999 5.77563 15.1826C5.71137 15.0023 5.60876 14.8302 5.49889 14.6703C5.21801 14.2649 4.92158 13.8688 4.6324 13.4675C4.59406 13.4145 4.55882 13.3585 4.52254 13.3046C4.50596 13.3086 4.48937 13.3117 4.47279 13.3158C4.47279 14.3556 4.47279 15.3944 4.47279 16.4699C4.60235 16.3813 4.69563 16.3171 4.77958 16.259C4.93713 16.4424 5.07809 16.6063 5.18484 16.7306C5.11644 16.9007 5.01175 17.0422 5.01279 17.1838C5.0159 17.6451 5.05321 18.1055 5.08741 18.5658C5.09674 18.687 5.10711 18.8388 5.1807 18.9182C5.41597 19.1718 5.41079 19.4223 5.27605 19.7146C5.18173 19.9193 5.19313 20.122 5.40457 20.2819C5.46365 20.3267 5.48853 20.4255 5.51029 20.5049C5.57663 20.7443 5.61083 20.9948 5.69789 21.225C5.82849 21.5682 5.99121 21.8992 6.14979 22.2312C6.1726 22.2801 6.25033 22.334 6.30319 22.334C7.23394 22.3412 8.16469 22.3402 9.0944 22.3402ZM2.25578 12.5102C2.24127 12.3421 2.2164 12.1883 2.21743 12.0356C2.22365 11.1648 2.40918 10.3185 2.61025 9.47726C2.73981 8.93647 2.5377 8.32948 2.10031 8.04127C2.00496 8.44151 1.89716 8.83972 1.81943 9.24302C1.76761 9.50782 1.70645 9.78687 1.74066 10.0486C1.7987 10.5008 1.71889 10.9163 1.55824 11.3298C1.51574 11.4388 1.48258 11.5518 1.45045 11.6639C1.38619 11.8889 1.45459 12.0621 1.66396 12.1792C1.85467 12.2861 2.04642 12.3931 2.25578 12.5102ZM2.944 5.32407C2.93571 5.31592 2.92638 5.30676 2.91809 5.29861C2.54081 5.48804 2.17183 5.69682 1.78523 5.86384C1.30638 6.07059 1.1478 6.35779 1.29705 6.90265C1.34784 6.4413 1.59555 6.16734 1.98112 5.98605C2.17286 5.89541 2.3501 5.7732 2.52526 5.65303C2.67037 5.5522 2.80511 5.43406 2.944 5.32407ZM6.90642 6.06855C7.14895 6.59916 7.26918 7.19087 7.75736 7.64815C7.51068 7.06866 7.3407 6.5024 6.90642 6.06855Z" fill="black"/>
<path d="M2.9437 5.32429C2.80378 5.43428 2.67007 5.55242 2.52393 5.65324C2.34877 5.77342 2.17153 5.89563 1.97979 5.98627C1.59422 6.16756 1.3465 6.44152 1.29572 6.90287C1.1475 6.358 1.30608 6.0708 1.78389 5.86406C2.17153 5.69704 2.53948 5.48928 2.91675 5.29883C2.92608 5.30698 2.93541 5.31512 2.9437 5.32429Z" fill="white"/>
<path d="M6.90625 6.06836C7.34053 6.5012 7.51051 7.06847 7.75719 7.64796C7.26901 7.1917 7.14878 6.59897 6.90625 6.06836Z" fill="white"/>
</svg>
