<svg width="109" height="37" viewBox="0 0 109 37" fill="none" xmlns="http://www.w3.org/2000/svg">
<path d="M61.737 23.6316C60.0465 23.6316 58.3559 23.6453 56.6674 23.616C56.4621 23.6121 56.1729 23.4303 56.0713 23.2486C54.5566 20.5613 53.0674 17.8604 51.543 15.1086C53.4524 13.3985 55.3169 11.7295 57.1794 10.0624C57.3729 9.88843 57.6015 9.7399 57.7501 9.53273C57.8654 9.37052 57.9475 9.12427 57.9142 8.9386C57.8986 8.84284 57.6035 8.73534 57.4335 8.73144C56.5227 8.70994 55.6081 8.74903 54.6993 8.69626C54.4648 8.68258 54.2459 8.41287 54.0192 8.26238C54.2498 8.15099 54.4745 7.96141 54.711 7.94382C56.5579 7.81092 58.4243 7.84415 60.2497 7.57444C63.4686 7.09757 66.1559 5.07088 66.367 1.18557C66.3806 0.917816 66.4881 0.655929 66.6875 0.395996C67.2542 1.53149 66.965 2.73735 67.0158 3.90216C67.0686 5.09629 67.0275 6.29628 67.0275 7.59594C68.3096 7.59594 69.4979 7.59594 70.7428 7.59594C70.7428 8.00441 70.7428 8.30929 70.7428 8.72557C69.5174 8.72557 68.3292 8.72557 67.0275 8.72557C67.0275 9.86693 67.0217 10.8988 67.0295 11.9327C67.0451 14.407 67.0139 16.8832 67.1057 19.3535C67.1722 21.1105 68.4836 21.9528 69.7578 21.1496C69.9865 21.005 70.2093 20.6629 70.2249 20.4011C70.4614 16.2851 72.5115 14.4832 76.6431 14.7959C76.9968 14.8232 77.3525 14.8389 77.9936 14.878C77.8392 13.6291 77.8431 12.4233 77.5148 11.3151C77.1454 10.0682 75.6679 9.48974 74.2763 9.82198C73.0763 10.1073 72.193 10.8383 71.4757 11.8155C71.3057 12.048 71.0399 12.2102 70.6334 12.5698C71.1923 9.47019 73.8952 7.55881 76.9734 7.81092C79.5766 8.02395 81.316 10.0076 81.3492 12.8747C81.3805 15.4799 81.3492 18.0851 81.3629 20.6883C81.3668 21.4115 81.3278 22.2108 82.4867 21.9782C82.0861 23.1567 81.3004 23.8095 80.2978 23.8799C79.133 23.96 78.5232 23.532 77.8333 22.0818C76.8366 23.2662 75.6229 24.0225 74.0633 23.9483C72.5194 23.874 71.3565 23.1157 70.5728 21.6401C69.6347 22.8675 68.5559 23.6961 66.9767 23.6434C65.5051 23.5945 64.438 22.9124 63.9728 21.5737C63.6289 20.5828 63.4745 19.4844 63.4471 18.4291C63.3768 15.6304 63.4295 12.8298 63.4197 10.0291C63.4158 8.88779 63.2439 8.76075 62.1142 8.70994C60.8302 8.65326 59.767 9.08323 58.8524 9.96856C57.5214 11.2585 56.1709 12.5308 54.7482 13.8871C55.2055 14.6825 55.6648 15.4897 56.1319 16.291C56.982 17.7529 57.8439 19.2089 58.6843 20.6747C59.3351 21.8102 60.1149 22.7737 61.4849 23.059C61.6686 23.0981 61.8484 23.1606 62.0302 23.2134C61.9325 23.3541 61.8347 23.4929 61.737 23.6316ZM77.8763 15.9294C76.2424 15.5737 74.9271 16.0017 74.1415 17.0923C73.3656 18.1711 73.2972 20.1626 74.0223 21.2649C74.4913 21.9782 75.1363 22.3515 76.0177 22.1444C76.9402 21.9274 77.7473 21.3997 77.8372 20.4695C77.9838 18.9607 77.8763 17.4284 77.8763 15.9294Z" fill="#353938"/>
<path d="M0.0293157 23.3113C0.302929 23.1823 0.566771 23.0142 0.852111 22.9282C1.7609 22.6546 2.32572 22.1133 2.32181 21.1185C2.30226 15.5895 2.27881 10.0586 2.24754 4.52969C2.23972 3.12253 1.86448 1.94404 0.261887 1.59812C0.175894 1.57857 0.119217 1.41831 0 1.26001C0.185666 1.15838 0.312701 1.02939 0.439736 1.02939C3.33418 1.03525 6.23448 0.947307 9.1211 1.10561C11.6735 1.24633 13.2488 2.70234 13.7491 4.97529C14.308 7.51403 13.5067 9.32379 11.2103 10.7094C11.1595 10.7407 11.1283 10.8013 11.1517 10.7759C12.1309 11.198 13.1979 11.5244 14.1204 12.0873C16.3445 13.4397 17.1986 15.914 16.624 18.9354C16.1784 21.2885 14.4448 22.9595 11.9237 23.4051C11.1595 23.54 10.3758 23.6162 9.60188 23.6221C6.44946 23.6455 3.29704 23.6318 0.144624 23.6318C0.105537 23.5263 0.0684034 23.4188 0.0293157 23.3113ZM6.05272 11.6964C6.05272 15.1967 6.041 18.5739 6.07813 21.9511C6.08008 22.1758 6.45923 22.5882 6.66054 22.5862C7.88984 22.5706 9.13087 22.5471 10.3406 22.3537C11.394 22.1856 12.1523 21.484 12.4885 20.4403C13.1784 18.2964 13.2097 16.1544 12.2677 14.0749C11.7048 12.8319 10.7862 11.886 9.37517 11.7218C8.32567 11.5967 7.2488 11.6964 6.05272 11.6964ZM6.05077 10.3303C7.68854 10.2893 9.33804 10.7954 10.3778 9.10099C11.3002 7.59807 11.1615 4.46129 10.1237 3.12449C9.3439 2.11798 7.75499 1.78183 6.05077 2.29388C6.05077 4.4906 6.05077 6.70492 6.05077 8.91728C6.05077 9.33943 6.05077 9.76157 6.05077 10.3303Z" fill="#353938"/>
<path d="M81.0762 8.05879C81.2814 8.00211 81.3987 7.94153 81.516 7.94153C83.1733 7.93567 84.8306 7.93762 86.6032 7.93762C86.6032 8.57475 86.6032 9.16693 86.6032 9.87637C87.0469 9.4679 87.3635 9.16497 87.6918 8.87377C89.7791 7.03079 92.8768 7.37476 94.2488 9.78451C96.3439 13.4666 96.3556 17.3323 94.4169 21.0593C92.9941 23.7955 89.996 24.5772 87.1974 23.2424C87.0586 23.1759 86.9198 23.1114 86.6638 22.9903C86.6638 25.3883 86.6638 27.6769 86.6638 30.1159C84.7036 29.7407 82.8586 29.3889 81.0137 29.0371C80.9981 28.9433 80.9844 28.8476 80.9688 28.7537C81.1583 28.6697 81.3401 28.5407 81.5375 28.5114C82.6808 28.3492 83.0756 27.9837 83.1205 26.8267C83.1733 25.4626 83.1635 24.0945 83.1655 22.7284C83.1713 19.0854 83.1557 15.4405 83.1733 11.7975C83.1792 10.2809 83.1987 8.79364 81.2326 8.42035C81.1798 8.41449 81.1583 8.26009 81.0762 8.05879ZM92.0755 17.6919C91.9973 16.2437 92.0423 15.0594 91.839 13.92C91.6416 12.8177 91.284 11.7174 90.811 10.7011C90.3635 9.74151 89.3863 9.44836 88.4071 9.72979C87.4104 10.0171 86.6384 10.9493 86.6365 11.8972C86.6306 13.8164 86.5915 15.7356 86.6521 17.6529C86.6834 18.6848 86.8065 19.7304 87.0391 20.7349C87.3342 22.0033 88.0925 22.6639 89.0306 22.7069C90.0527 22.7538 90.8814 22.2027 91.3074 20.9304C91.6866 19.8046 91.8644 18.6125 92.0755 17.6919Z" fill="#353938"/>
<path d="M30.5215 14.7547C30.5215 13.9339 30.586 13.1502 30.5098 12.3802C30.3105 10.3906 28.5984 9.2082 26.732 9.93327C25.7861 10.3007 25.0199 11.1391 24.1835 11.7782C23.9431 11.9619 23.7398 12.1964 23.3704 12.5502C23.6128 10.1092 25.9619 7.98866 28.3483 7.80495C31.8173 7.5372 34.016 9.55412 34.0335 13.0349C34.0453 15.6068 34.0316 18.1788 34.0414 20.7488C34.0433 21.4544 34.0805 22.1618 35.1163 21.9918C34.8544 23.0394 34.1 23.7332 33.1306 23.8602C31.7841 24.0341 30.9867 23.3482 30.6056 22.2908C29.687 22.8127 28.8603 23.4908 27.9144 23.7781C26.1124 24.3273 24.3574 23.528 23.476 21.9918C22.4675 20.2368 22.7177 17.8798 24.0682 16.457C25.4968 14.9502 27.3437 14.7254 29.2766 14.7841C29.601 14.7938 29.9254 14.8251 30.2499 14.8388C30.3065 14.8407 30.3652 14.8036 30.5215 14.7547ZM30.5508 15.984C29.0772 15.4681 27.4785 16.0094 26.7066 17.2622C25.8955 18.5795 26.0812 20.8172 27.0799 21.7221C27.674 22.2615 28.3717 22.3631 29.0753 22.0368C29.8238 21.6889 30.5215 21.214 30.543 20.2661C30.5723 18.8355 30.5508 17.4029 30.5508 15.984Z" fill="#353938"/>
<path d="M108.223 15.3998C105.295 15.3998 102.516 15.3998 99.659 15.3998C99.7469 17.7548 100.003 20.0023 102.104 21.2434C104.598 22.717 106.341 21.0362 108.075 19.3926C108.047 19.59 108.061 19.8049 107.987 19.9828C107.101 22.1111 105.622 23.5534 103.263 23.8603C100.843 24.173 98.9437 23.2056 97.5404 21.2688C95.4688 18.4095 95.4512 13.1737 97.4818 10.2695C98.9652 8.14705 101.054 7.38679 103.535 7.85975C106.101 8.34835 107.291 10.25 107.873 12.5972C108.084 13.4591 108.102 14.3737 108.223 15.3998ZM104.883 14.3776C104.557 12.9177 104.324 11.5789 103.941 10.2832C103.705 9.48189 103.103 8.67473 102.209 8.85258C101.596 8.97375 100.847 9.60502 100.609 10.1894C100.079 11.4832 99.8349 12.8923 99.4401 14.3776C101.35 14.3776 102.964 14.3776 104.883 14.3776Z" fill="#353938"/>
<path d="M23.6573 23.5808C21.1166 23.5808 18.6248 23.5808 16.1329 23.5808C16.0978 23.5261 16.0645 23.4694 16.0293 23.4147C16.217 23.2818 16.385 23.0903 16.5942 23.0278C17.6124 22.719 18.0736 22.0193 18.0756 20.9913C18.0795 15.2278 18.0873 9.4663 18.0697 3.70282C18.0658 2.53606 17.6925 2.18232 16.516 1.98688C16.3225 1.95561 16.1427 1.85398 15.9551 1.78558C15.9531 1.68395 15.9512 1.58037 15.9492 1.47874C17.7883 1.11913 19.6274 0.759525 21.6032 0.374512C21.6032 0.865062 21.6032 1.24812 21.6032 1.62923C21.6032 7.81485 21.615 14.0005 21.5954 20.1861C21.5915 21.603 21.8065 22.8069 23.4775 23.1177C23.5303 23.1274 23.585 23.1939 23.6124 23.2486C23.6397 23.3014 23.6339 23.3737 23.6573 23.5808Z" fill="#353938"/>
<path d="M53.3233 23.5828C50.7161 23.5828 48.2614 23.5828 45.668 23.5828C45.8224 23.3483 45.8908 23.1138 46.0041 23.0903C47.4699 22.7835 47.7533 21.7242 47.7514 20.448C47.7435 16.6428 47.7494 12.8376 47.7494 9.03243C47.7494 7.56859 47.7514 6.10476 47.7494 4.64093C47.7474 2.48915 47.6263 2.32303 45.6523 1.65854C47.4172 1.00187 49.2914 0.798613 51.2341 0.374512C51.2341 0.872879 51.2341 1.25594 51.2341 1.64095C51.2341 7.78748 51.2438 13.934 51.2262 20.0805C51.2223 21.5033 51.3376 22.7932 53.0888 23.1235C53.1591 23.1411 53.1982 23.3307 53.3233 23.5828Z" fill="#353938"/>
<path d="M45.9368 13.4903C45.7804 13.2088 45.6299 12.9215 45.4638 12.646C44.8638 11.6551 44.3948 10.5391 43.6228 9.70658C42.4091 8.3991 40.5935 8.6473 39.6339 10.1619C38.2463 12.3509 38.2463 14.786 38.6333 17.2329C38.7583 18.0225 39.0241 18.8199 39.3798 19.5371C40.7792 22.3612 43.828 22.6231 45.7511 20.1234C45.9876 19.8146 46.2593 19.5332 46.6325 19.1032C46.6032 20.9189 44.8502 22.9964 43.0248 23.6159C40.6072 24.4368 38.0176 23.6061 36.4424 21.5052C34.2085 18.5326 34.1831 13.287 36.3838 10.3007C38.1232 7.93982 41.1231 7.1307 44.1778 8.1978C46.3101 8.94241 46.3101 8.94242 46.3101 11.1763C46.3101 11.9268 46.3101 12.6792 46.3101 13.4297C46.1869 13.4512 46.0619 13.4707 45.9368 13.4903Z" fill="#353938"/>
<path d="M12.1418 32.5261C12.4096 33.2081 12.6949 33.7691 12.8454 34.3632C12.9939 34.9554 13.0056 35.5808 13.0838 36.2413C12.2982 36.5286 11.9131 36.2843 11.9288 35.3795C11.9366 34.9612 11.9386 34.4863 11.7548 34.1365C11.5555 33.7554 11.1763 33.2746 10.8109 33.2121C9.99785 33.0733 9.14574 33.1691 8.22132 33.1691C8.22132 34.2205 8.22132 35.2192 8.22132 36.2726C7.86171 36.2726 7.59005 36.2726 7.26172 36.2726C7.26172 33.7339 7.26172 31.2186 7.26172 28.6388C8.58679 28.6388 9.84932 28.5978 11.1079 28.6525C12.0734 28.6935 12.7711 29.2075 13.0232 30.1769C13.2656 31.115 13.0389 31.9124 12.1926 32.4753C12.1164 32.5241 12.0636 32.6121 12.1418 32.5261ZM8.27409 32.2231C9.22978 32.2231 10.0741 32.2759 10.9066 32.2075C11.6591 32.145 12.0265 31.6388 12.0363 30.8785C12.046 30.173 11.7744 29.6179 11.0434 29.5534C10.1268 29.4733 9.19851 29.5339 8.27409 29.5339C8.27409 30.4681 8.27409 31.3007 8.27409 32.2231Z" fill="#353938"/>
<path d="M21.5246 32.4787C21.5226 34.867 19.9552 36.5204 17.7018 36.5106C15.4601 36.5008 13.9201 34.8279 13.9376 32.422C13.9533 30.065 15.4777 28.4605 17.7096 28.4507C19.9845 28.441 21.5265 30.0709 21.5246 32.4787ZM17.7721 35.5881C19.4471 35.5725 20.4907 34.3627 20.4751 32.4494C20.4614 30.5478 19.3845 29.3126 17.737 29.3087C16.0621 29.3048 14.95 30.6045 14.9832 32.5354C15.0126 34.4487 16.0679 35.6038 17.7721 35.5881Z" fill="#353938"/>
<path d="M60.6123 32.4361C60.6279 34.8321 59.0762 36.5051 56.8325 36.5109C54.5791 36.5188 53.0234 34.8654 53.0234 32.4654C53.0234 30.0967 54.5264 28.4823 56.7524 28.453C59.0371 28.4237 60.5986 30.0341 60.6123 32.4361ZM59.5628 32.4986C59.5198 31.2673 59.2286 30.1338 58.0032 29.5709C56.9869 29.1058 55.9491 29.1879 55.0677 29.9305C53.7153 31.0699 53.7309 33.8999 55.1029 35.0217C55.4371 35.2934 55.9003 35.4888 56.3283 35.5494C58.2807 35.8269 59.553 34.6035 59.5628 32.4986Z" fill="#353938"/>
<path d="M66.849 34.8126C66.849 32.5886 66.849 30.6576 66.849 28.7267C66.933 28.6544 67.017 28.5821 67.1011 28.5098C67.3356 28.7169 67.7695 28.9202 67.7753 29.1313C67.8242 31.5 67.8066 33.8687 67.8066 36.2003C67.0483 36.5188 66.6594 36.2393 66.2939 35.6609C65.1858 33.9078 64.0249 32.1879 62.7096 30.1905C62.7096 32.3892 62.7096 34.3045 62.7096 36.2706C62.3343 36.2706 62.0939 36.2706 61.7891 36.2706C61.7891 33.7299 61.7891 31.2146 61.7891 28.713C62.4751 28.4296 62.8503 28.6759 63.1982 29.2251C64.3395 31.0231 65.5219 32.7899 66.849 34.8126Z" fill="#353938"/>
<path d="M22.5 36.298C22.5 33.7456 22.5 31.2576 22.5 28.5098C23.9032 28.6212 25.2967 28.6036 26.6257 28.8928C27.2179 29.0218 27.8472 29.6726 28.1658 30.2472C28.928 31.627 28.8986 33.1241 28.2693 34.5703C27.8355 35.5709 27.0127 36.1846 25.9417 36.2765C24.8218 36.3742 23.6844 36.298 22.5 36.298ZM23.5143 35.4556C24.8453 35.3579 26.2505 35.8309 27.1925 34.4667C27.8589 33.5013 27.8257 31.2909 27.1202 30.3684C26.1606 29.1078 24.8062 29.5593 23.5143 29.5045C23.5143 31.5176 23.5143 33.4231 23.5143 35.4556Z" fill="#353938"/>
<path d="M74.4685 30.7962C73.976 30.9702 73.6868 30.9154 73.4484 30.3272C73.0164 29.262 71.3884 28.8985 70.4386 29.565C69.7155 30.0731 69.8132 31.0835 70.6751 31.4236C71.365 31.6952 72.1135 31.8164 72.8308 32.0197C74.2692 32.4262 74.92 33.2099 74.8164 34.3923C74.7148 35.5434 73.8686 36.2998 72.479 36.4796C70.4288 36.7434 69.0178 35.7701 68.7109 33.8451C69.2288 33.5851 69.6354 33.593 69.78 34.275C70.0888 35.7252 72.18 35.9832 73.1005 35.4027C73.4405 35.1877 73.7298 34.6307 73.7376 34.2242C73.7435 33.8685 73.3995 33.3682 73.0673 33.1806C72.5454 32.8835 71.9024 32.8053 71.3161 32.6158C70.8549 32.4672 70.3722 32.3461 69.9481 32.1213C68.9748 31.6034 68.7031 30.337 69.3305 29.4321C69.9031 28.6054 71.3142 28.236 72.6432 28.5682C73.7396 28.8419 74.3493 29.5806 74.4685 30.7962Z" fill="#353938"/>
<path d="M43.3064 31.0307C43.0172 30.8333 42.6322 30.6985 42.4543 30.4288C41.5045 28.9747 39.382 28.8907 38.4517 30.3584C37.6211 31.6679 37.6211 33.0731 38.3618 34.4274C38.8661 35.3499 39.726 35.6607 40.7579 35.5747C41.7292 35.4945 42.3253 34.9493 42.5638 34.06C42.7299 33.4424 43.0465 33.3818 43.5488 33.5538C43.6387 34.7968 42.894 35.9069 41.7097 36.3095C38.8504 37.2828 36.3078 34.8613 36.8511 31.6815C37.242 29.3949 38.9032 28.1793 41.1781 28.5096C42.423 28.6913 43.2282 29.477 43.498 30.7747C43.4354 30.8587 43.3709 30.9447 43.3064 31.0307Z" fill="#353938"/>
<path d="M29.7523 28.6485C30.1295 28.6485 30.3777 28.6485 30.6357 28.6485C30.6748 28.7775 30.7256 28.8654 30.7276 28.9553C30.7354 30.4856 30.7237 32.0159 30.7412 33.5462C30.7588 34.9943 31.3608 35.5826 32.7601 35.5728C34.1106 35.565 34.6441 35.008 34.6539 33.554C34.6656 31.9611 34.6559 30.3664 34.6559 28.6895C34.9705 28.6563 35.2402 28.6289 35.506 28.6016C35.5764 28.752 35.6507 28.838 35.6507 28.924C35.6565 30.6498 35.6976 32.3774 35.6389 34.0992C35.5862 35.6295 34.4272 36.507 32.6546 36.4816C30.8566 36.4562 29.7895 35.5709 29.7601 34.0035C29.725 32.2504 29.7523 30.4954 29.7523 28.6485Z" fill="#353938"/>
<path d="M1.78383 36.2765C1.40664 36.2765 1.13498 36.2765 0.804688 36.2765C0.804688 33.7514 0.804688 31.2635 0.804688 28.543C2.20403 28.6192 3.59164 28.5879 4.94016 28.8029C5.90172 28.9553 6.38445 29.9697 6.30823 31.1032C6.23982 32.1351 5.6926 32.8407 4.67827 32.999C3.75971 33.1416 2.8177 33.1475 1.78383 33.2198C1.78383 34.24 1.78383 35.2328 1.78383 36.2765ZM1.8581 29.4967C1.8581 30.4954 1.8581 31.3553 1.8581 32.2543C2.62031 32.2543 3.30239 32.2739 3.98251 32.2504C4.83267 32.2211 5.30758 31.7755 5.32908 30.9078C5.34863 30.0303 4.85808 29.5729 4.03137 29.5104C3.32389 29.4557 2.61249 29.4967 1.8581 29.4967Z" fill="#353938"/>
<path d="M46.6063 36.2336C46.6063 34.033 46.6063 31.8304 46.6063 29.5203C45.7307 29.5203 44.9353 29.5203 44.1555 29.5203C43.9112 28.8421 44.0715 28.5822 44.7125 28.5881C46.3073 28.6057 47.9021 28.6057 49.4968 28.5881C50.1379 28.5802 50.3059 28.8382 50.0636 29.4812C49.2916 29.4812 48.5177 29.4812 47.605 29.4812C47.605 31.1327 47.605 32.7157 47.605 34.2988C47.605 34.7209 47.5737 35.147 47.6109 35.5672C47.6793 36.3372 47.3196 36.4584 46.6063 36.2336Z" fill="#353938"/>
<path d="M51.082 28.6523C51.3986 28.6523 51.6449 28.6523 51.8364 28.6523C51.9166 28.7247 51.9615 28.7462 51.9615 28.7696C51.9654 31.2341 51.9654 33.7005 51.9654 36.249C51.7074 36.2823 51.4358 36.3155 51.084 36.3604C51.082 33.7787 51.082 31.2614 51.082 28.6523Z" fill="#353938"/>
</svg>
